<svg xmlns="http://www.w3.org/2000/svg" viewBox="0 0 72 72"><g data-name="Layer 1"><ellipse cx="41.881" cy="46.805" rx="26.195" ry="18.351" fill="#a9ffd6"/><path d="M37.809 23.241s-1.2-.044-1.236-.049c-.1 1.491-1.8 3.93-2.847 4.87 1.015.058 3.29.542 4.379.667.525.059.53-.18.47.346-.057.488.059.049-.42.049-.038 0-1.072-.143-1.109-.148a34.153 34.153 0 0 0-9.546-.049c-.519.064-1.105.426-1.162-.1s.212-.463.738-.519c.072-.008 1.566.058 2.526 0a10.929 10.929 0 0 1-2.72-5.093 21.383 21.383 0 0 0-2.744.149 6.287 6.287 0 0 0-6.081-4.1 8.2 8.2 0 0 0-2.892.894l1.607 6.5A17.5 17.5 0 0 0 9.6 37.1l-4.126 2.234A20.745 20.745 0 0 0 6.488 46.4l3.612 1.24c1.2 4.126 3.516 3.818 7.021 6.131l.445 5.587a5.186 5.186 0 0 0 2.546 1.013 9.694 9.694 0 0 0 2.546-.851l1.137-3.03a14.042 14.042 0 0 0 4.153.565h4.623c2.378 0 5.191-.095 5.191-.095a10.924 10.924 0 0 0 3.881-.3l.989 2.99a10.839 10.839 0 0 0 3.164.718 3.544 3.544 0 0 0 2.1-.915l.692-6.144c4.6-3.243 7.49-5.82 7.49-11.877a18.462 18.462 0 0 0-18.269-18.191zm-21.3 13.253a1.827 1.827 0 0 1-1.589-2.024 1.827 1.827 0 0 1 1.592-2.024A1.826 1.826 0 0 1 18.1 34.47a1.826 1.826 0 0 1-1.588 2.024z" fill="#a3acff"/><circle cx="31.705" cy="23.554" r="4.629" fill="#fff"/><circle cx="39.068" cy="12.969" r="2.022" fill="#a3acff"/><path d="M59.2 30.211l.206-.046a4.025 4.025 0 0 0 2.118-1.265A3.689 3.689 0 0 0 62 24.35a.525.525 0 0 0-.336-.224.5.5 0 0 0-.387.077.522.522 0 0 0-.146.724 2.679 2.679 0 0 1-.386 3.279 3.153 3.153 0 0 1-.586.508l-.621.421-.071-.747a6.7 6.7 0 0 0-1.151-2.944c-.886-1.368-2.067-2.037-3.155-1.788a2.165 2.165 0 0 0-1.631 1.893c-.2 1.549.89 3.112 2.925 4.182a4.86 4.86 0 0 0 .842.345l.752.226-.582.529a6.735 6.735 0 0 1-2.928 1.407l-.332.094-.2-.278a19.515 19.515 0 0 0-16.594-9.612l-.758-.076-.086-.285a5.074 5.074 0 0 0-9.77.141l-.082.3-.7.049c-.387.025-.775.049-1.168.112l-.3.048-.155-.258a7.292 7.292 0 0 0-6.4-3.8 7.561 7.561 0 0 0-2.56.43 1.484 1.484 0 0 0-.892 1.789l1.547 5.513-.233.183a19.3 19.3 0 0 0-6.6 9.761l-.053.181-3.49 1.836a1.48 1.48 0 0 0-.79 1.194 18.529 18.529 0 0 0 .728 6.664 1.488 1.488 0 0 0 .972.951l2.846.881.074.211c.832 2.374 2.11 3.024 3.88 3.923a20.041 20.041 0 0 1 2.965 1.751l.169.124.286 4.935a1.5 1.5 0 0 0 .539 1.062 4.5 4.5 0 0 0 2.81.882 6.568 6.568 0 0 0 2.595-.572 1.477 1.477 0 0 0 .843-.965l.579-2.064.4.069a18.871 18.871 0 0 0 3.242.285c.056 0 2.181.041 4.53.041 2.389 0 4.927-.041 4.928-.041a18.956 18.956 0 0 0 3.5-.329l.4-.075.6 2.116a1.485 1.485 0 0 0 .8.944 6.469 6.469 0 0 0 2.746.656 4.448 4.448 0 0 0 2.671-.8 1.487 1.487 0 0 0 .568-1.054l.436-5.422.154-.12c4.846-3.766 7.516-5.841 7.516-11.762a19.2 19.2 0 0 0-1.8-8.086l-.219-.476.5-.138c.887-.244 3.041-1 3.919-2.751zM31.705 19.49a4.063 4.063 0 1 1-4.063 4.063 4.067 4.067 0 0 1 4.063-4.063zm23.939 22.357c0 5.975-2.827 7.957-7.1 10.958l-.526.369-.487 6.088-.155.12a3.452 3.452 0 0 1-2.029.583 5.429 5.429 0 0 1-2.3-.558l-.184-.086-.924-3.279a18.222 18.222 0 0 1-4.652.611s-2.529.04-4.9.04-4.537-.04-4.537-.04a18.263 18.263 0 0 1-4.37-.546l-.9 3.222-.2.084a5.514 5.514 0 0 1-2.181.487 3.521 3.521 0 0 1-2.146-.644l-.149-.123-.335-5.633a26.969 26.969 0 0 0-2.517-1.393c-2.129-1.074-3.82-1.928-4.752-4.888l-3.586-1.108-.072-.217a17.281 17.281 0 0 1-.681-6.247l.021-.244 4.107-2.158a18.342 18.342 0 0 1 7.2-10.421l-1.853-6.6.376-.147a6.509 6.509 0 0 1 2.181-.359c1.847 0 4.357.74 5.985 4.194a18.764 18.764 0 0 1 2.187-.3l.441-.039.04.442a5.067 5.067 0 0 0 1.678 3.336l.8.711-1.067.066c-.894.054-1.456.11-1.577.122a.523.523 0 0 0-.36.19.513.513 0 0 0 .085.726.466.466 0 0 0 .362.1 60.033 60.033 0 0 1 11.82.133h.008a.526.526 0 0 0 .561-.451.507.507 0 0 0-.109-.376.5.5 0 0 0-.342-.19c-1-.116-2.029-.2-3.14-.266l-1.065-.059.8-.714a5.071 5.071 0 0 0 1.684-3.452l.032-.478.474.068a18.389 18.389 0 0 1 18.354 18.366zM57.9 29.16a3.709 3.709 0 0 1-.959-.355c-2.42-1.27-2.43-2.71-2.376-3.12a1.121 1.121 0 0 1 .828-1.011c.594-.136 1.419.365 2.048 1.337a5.327 5.327 0 0 1 1 2.706l.009.558z" fill="#36384b"/><path d="M16.512 32.446a1.827 1.827 0 0 0-1.592 2.024 1.828 1.828 0 0 0 1.592 2.025A1.827 1.827 0 0 0 18.1 34.47a1.826 1.826 0 0 0-1.588-2.024zm22.612-22.019a2.757 2.757 0 1 0 2.757 2.757 2.759 2.759 0 0 0-2.757-2.757zm0 4.47a1.713 1.713 0 1 1 1.714-1.713 1.715 1.715 0 0 1-1.714 1.716zM28.918 5.992a3.88 3.88 0 1 0 3.882 3.88 3.885 3.885 0 0 0-3.882-3.88zm0 6.717a2.837 2.837 0 1 1 2.837-2.837 2.84 2.84 0 0 1-2.837 2.837zm-7.686-.313h.583v1.166h-.583zm0 2.915h.583v1.166h-.583zm1.167-1.166h1.166v.583h-1.166zm-2.916 0h1.166v.583h-1.166" fill="#36384b"/><circle cx="19.483" cy="7.625" r="1.166" fill="#a9ffd6"/><path fill="#36384b" d="M40.751 5.918h.583v1.166h-.583zm0 2.915h.583v1.166h-.583zm1.166-1.166h1.166v.583h-1.166zm-2.915 0h1.166v.583h-1.166"/><circle cx="47.666" cy="13.917" r=".583" fill="#a9ffd6"/><path d="M37.257 44.631a3.706 3.706 0 0 0-.529-1.328 3.746 3.746 0 0 0-1.166-1.1 4.839 4.839 0 0 0-1.477-.6v-4.362c.033.019.065.04.1.062a2.889 2.889 0 0 1 .625.564 2.011 2.011 0 0 1 .354.643 3.174 3.174 0 0 1 .158.759.875.875 0 0 0 1 .832c.213-.028.726-.177.874-1.011a3.811 3.811 0 0 0-1.083-2.72 4.131 4.131 0 0 0-2.024-1.091V34.7a1 1 0 0 0-.372-.8 1.049 1.049 0 0 0-1.4.038 1.028 1.028 0 0 0-.312.764v.471a5.646 5.646 0 0 0-1.29.312 4.372 4.372 0 0 0-1.5.916 3.845 3.845 0 0 0-.924 1.368 3.637 3.637 0 0 0-.234 1.691 3.9 3.9 0 0 0 1.346 2.62 5.076 5.076 0 0 0 2.6 1.083v4.224a3.43 3.43 0 0 1-1.628-.585 2.317 2.317 0 0 1-.923-1.325.933.933 0 0 0-.95-.8.82.82 0 0 0-.741.287.834.834 0 0 0-.17.746 3.831 3.831 0 0 0 1.758 2.636 6.148 6.148 0 0 0 2.654.878v.417a1.018 1.018 0 0 0 1.023 1.049 1.108 1.108 0 0 0 .688-.248 1 1 0 0 0 .368-.8V49.2a3.749 3.749 0 0 0 2.254-1.1 3.583 3.583 0 0 0 .984-2.178 4.591 4.591 0 0 0-.063-1.291zm-1.789 1.224a1.424 1.424 0 0 1-.081.383 1.476 1.476 0 0 1-.27.481 1.9 1.9 0 0 1-.587.452 1.9 1.9 0 0 1-.445.163v-3.8a2.273 2.273 0 0 1 .928.59 2.52 2.52 0 0 1 .455 1.731zm-4.976-5.379a1.405 1.405 0 0 1-.353-.514 2.491 2.491 0 0 1-.143-.62 2.064 2.064 0 0 1 .614-1.634 2.508 2.508 0 0 1 1.4-.691v4.251a3.193 3.193 0 0 1-.7-.245 3.37 3.37 0 0 1-.818-.547z" fill="#fff"/></g></svg>