<svg xmlns="http://www.w3.org/2000/svg" viewBox="0 0 72 72"><g data-name="Layer 1"><circle cx="20.595" cy="34.895" r="3.27" fill="#a9ffd6"/><ellipse cx="41.719" cy="46.611" rx="26.195" ry="18.351" fill="#a9ffd6"/><circle cx="30.615" cy="21.176" r="6.193" fill="#a9ffd6"/><path d="M27.173 44.8a18.02 18.02 0 0 0 6.62-1.257 11.718 11.718 0 1 0 9.91-9.508A18.074 18.074 0 1 0 27.173 44.8zM44.817 46a3.7 3.7 0 1 1-3.7 3.7 3.7 3.7 0 0 1 3.7-3.691zM30.788 15.369a5.681 5.681 0 1 1-5.681 5.68 5.68 5.68 0 0 1 5.681-5.68zM20.6 32.487a2.667 2.667 0 1 1-2.666 2.667 2.667 2.667 0 0 1 2.666-2.667z" fill="#a2acff"/><path d="M45.229 57.769a12.237 12.237 0 0 1-12.222-12.223c0-.357.017-.718.054-1.092a18.673 18.673 0 1 1 11.58-11.112c.2-.011.4-.017.588-.017a12.222 12.222 0 0 1 0 24.444zM34.57 42.594l-.183 1.057a11.117 11.117 0 1 0 9.395-9.014l-1.064.14.435-.981a17.479 17.479 0 1 0-9.581 9.191zm10.247 11.42a4.3 4.3 0 1 1 4.3-4.3 4.308 4.308 0 0 1-4.3 4.3zm0-7.4a3.1 3.1 0 1 0 3.1 3.1 3.1 3.1 0 0 0-3.1-3.103zM20.6 38.423a3.27 3.27 0 1 1 3.27-3.269 3.272 3.272 0 0 1-3.27 3.269zm0-5.334a2.065 2.065 0 1 0 2.065 2.065 2.067 2.067 0 0 0-2.065-2.065zm10.193-5.757a6.283 6.283 0 1 1 6.283-6.283 6.29 6.29 0 0 1-6.288 6.283zm0-11.361a5.078 5.078 0 1 0 5.078 5.078 5.084 5.084 0 0 0-5.083-5.078z" fill="#36384b"/><path d="M45.229 61.239a15.639 15.639 0 0 1-15.372-12.523 22.128 22.128 0 1 1 19.174-18.4 15.693 15.693 0 0 1-3.8 30.919zM30.841 47.36l.1.583a14.488 14.488 0 1 0 17.274-16.574l-.579-.122.11-.581a20.945 20.945 0 1 0-20.573 17.007 21.213 21.213 0 0 0 3.083-.226zm13.976 3.183a.833.833 0 1 1 .833-.833.833.833 0 0 1-.833.833z" fill="#36384b"/><path d="M45.229 60.107a14.489 14.489 0 0 1-14.441-12.674A21.006 21.006 0 1 1 47.71 31.2a14.561 14.561 0 0 1-2.481 28.908zM33.038 44.448l.047 1.488A12.15 12.15 0 1 0 46.12 33.429l-1.486-.107.416-1.431A18.611 18.611 0 1 0 31.593 44.8zm11.779 8.433a3.171 3.171 0 1 1 3.17-3.171 3.174 3.174 0 0 1-3.17 3.171z" fill="#fff"/><path fill="#36384b" d="M36.177 32.731h.583v1.166h-.583zm0 2.915h.583v1.166h-.583zm1.166-1.166h1.166v.583h-1.166zm-2.915 0h1.166v.583h-1.166m20.795-15.994h.583v1.166h-.583zm0 2.915h.583v1.166h-.583zm1.166-1.166h1.166v.583h-1.166zm-2.915 0h1.166v.583h-1.166"/><circle cx="50.134" cy="15.46" r="1.166" fill="#a9ffd6"/><circle cx="56.389" cy="12.202" r=".583" fill="#a9ffd6"/></g></svg>