<svg xmlns="http://www.w3.org/2000/svg" viewBox="0 0 72 72"><g data-name="Layer 1"><ellipse cx="35" cy="32.415" rx="26.195" ry="18.351" fill="#a9ffd6"/><path fill="#a2acff" d="M22.546 36.164L10.827 53.556l11.569-.777 1.192 14.24 15.091-22.397"/><path fill="#a2acff" d="M46.601 37.226L58.32 54.618l-11.569-.777-1.193 14.24-14.687-21.798"/><path fill="#36384b" d="M9.241 13.009h.583v1.166h-.583zm0 2.916h.583v1.166h-.583zm1.166-1.166h1.166v.583h-1.166zm-2.915 0h1.166v.583H7.492m54.314 26.826h.583v1.166h-.583zm0 2.915h.583v1.166h-.583zm1.166-1.166h1.166v.583h-1.166zm-2.915 0h1.166v.583h-1.166"/><path d="M37.509 48.39c-.406 0-1.011-.5-1.545-.934a3.956 3.956 0 0 0-2.237-1.185 3.964 3.964 0 0 0-2.239 1.185c-.533.438-1.137.933-1.544.933-.5-.081-.939-.817-1.324-1.466a3.892 3.892 0 0 0-1.655-1.838 1.828 1.828 0 0 0-.62-.1 6.024 6.024 0 0 0-1.864.447 5.413 5.413 0 0 1-1.519.387.675.675 0 0 1-.341-.073c-.37-.214-.526-1.049-.664-1.785a3.9 3.9 0 0 0-.933-2.31 3.91 3.91 0 0 0-2.442-.521c-.747-.009-1.6-.019-1.867-.343s-.134-1.157-.014-1.893a3.917 3.917 0 0 0-.092-2.5 3.9 3.9 0 0 0-2.109-1.317c-.7-.265-1.5-.565-1.649-.969-.141-.388.27-1.121.633-1.766a3.947 3.947 0 0 0 .776-2.4 3.863 3.863 0 0 0-1.516-1.94c-.575-.493-1.226-1.054-1.226-1.494s.651-1 1.225-1.494a3.86 3.86 0 0 0 1.517-1.942 3.944 3.944 0 0 0-.776-2.395c-.362-.647-.774-1.378-.633-1.767.148-.4.946-.705 1.65-.97a3.882 3.882 0 0 0 2.105-1.313 3.907 3.907 0 0 0 .092-2.5c-.12-.736-.256-1.57.015-1.893s1.121-.335 1.869-.343a3.909 3.909 0 0 0 2.44-.521 3.9 3.9 0 0 0 .933-2.31c.139-.736.3-1.572.665-1.786a.679.679 0 0 1 .34-.073 5.35 5.35 0 0 1 1.518.389 6.027 6.027 0 0 0 1.865.446 1.828 1.828 0 0 0 .62-.1A3.887 3.887 0 0 0 28.621 6.1c.385-.65.821-1.385 1.249-1.46h.009a3.309 3.309 0 0 1 1.61.926 3.961 3.961 0 0 0 2.238 1.184 3.961 3.961 0 0 0 2.238-1.185c.534-.437 1.139-.932 1.545-.932.5.081.938.817 1.323 1.466a3.892 3.892 0 0 0 1.655 1.838 1.83 1.83 0 0 0 .621.1 6.027 6.027 0 0 0 1.864-.446 5.387 5.387 0 0 1 1.518-.391.689.689 0 0 1 .342.073c.369.214.525 1.049.663 1.786a3.9 3.9 0 0 0 .933 2.31 3.914 3.914 0 0 0 2.441.522c.748.008 1.6.018 1.868.342s.134 1.158.014 1.894a3.918 3.918 0 0 0 .092 2.5 3.891 3.891 0 0 0 2.1 1.314c.7.265 1.5.565 1.65.969.141.389-.27 1.121-.633 1.767a3.951 3.951 0 0 0-.776 2.4 3.863 3.863 0 0 0 1.516 1.94c.575.494 1.227 1.053 1.227 1.494s-.652 1-1.227 1.5a3.863 3.863 0 0 0-1.516 1.94 3.951 3.951 0 0 0 .776 2.4c.362.646.774 1.379.633 1.767-.148.4-.946.7-1.65.969a3.892 3.892 0 0 0-2.1 1.315 3.906 3.906 0 0 0-.092 2.5c.12.735.256 1.57-.015 1.892s-1.12.334-1.867.343a3.91 3.91 0 0 0-2.442.521 3.9 3.9 0 0 0-.933 2.309c-.139.737-.295 1.572-.664 1.786a.675.675 0 0 1-.341.073 5.415 5.415 0 0 1-1.518-.387 6.03 6.03 0 0 0-1.864-.447 1.83 1.83 0 0 0-.621.1 3.888 3.888 0 0 0-1.655 1.838c-.385.648-.821 1.385-1.25 1.46z" fill="#fff"/><path d="M50.07 41.561a1.617 1.617 0 0 0 1.05-.454c.8-.954-.472-3.379.156-4.464s3.361-1.18 3.792-2.363c.424-1.163-1.6-3-1.386-4.248.213-1.212 2.75-2.248 2.75-3.521S53.9 24.2 53.683 22.99c-.219-1.246 1.809-3.084 1.386-4.247-.431-1.183-3.17-1.287-3.792-2.362s.646-3.51-.156-4.465-3.413-.122-4.371-.926-.581-3.517-1.667-4.145a1.156 1.156 0 0 0-.591-.14c-.993 0-2.382.834-3.383.834a1.315 1.315 0 0 1-.45-.072c-1.163-.423-1.743-3.1-2.989-3.32a.868.868 0 0 0-.161-.014c-1.179 0-2.565 2.117-3.782 2.117s-2.6-2.117-3.782-2.117a.963.963 0 0 0-.161.013c-1.246.219-1.826 2.9-2.989 3.321a1.311 1.311 0 0 1-.45.071c-1 0-2.39-.834-3.382-.834a1.167 1.167 0 0 0-.591.14c-1.086.628-.713 3.343-1.668 4.145s-3.566-.032-4.371.926.472 3.379-.156 4.464-3.361 1.18-3.792 2.363c-.423 1.163 1.6 3 1.386 4.248-.213 1.212-2.75 2.248-2.75 3.521s2.537 2.309 2.75 3.521c.218 1.246-1.81 3.084-1.386 4.247.43 1.183 3.169 1.287 3.791 2.362s-.646 3.51.156 4.465a2.639 2.639 0 0 0 1.952.515l-8.442 12.5 12.1-.811 1.269 15.165 11.004-16.334 11.723 17.4 1.27-15.166 12.1.813zm-32.876-2.589a4.255 4.255 0 0 0-.152-2.831 4.231 4.231 0 0 0-2.363-1.532 4.382 4.382 0 0 1-1.352-.662 4.209 4.209 0 0 1 .6-1.361 4.284 4.284 0 0 0 .833-2.727 4.2 4.2 0 0 0-1.683-2.233c-.359-.308-1.026-.882-1.052-1.112.026-.237.693-.81 1.052-1.119a4.2 4.2 0 0 0 1.683-2.233 4.283 4.283 0 0 0-.832-2.727 4.453 4.453 0 0 1-.6-1.346 4.108 4.108 0 0 1 1.357-.677 4.236 4.236 0 0 0 2.363-1.532 4.255 4.255 0 0 0 .152-2.831 4.407 4.407 0 0 1-.1-1.486 4.138 4.138 0 0 1 1.5-.17 4.248 4.248 0 0 0 2.757-.638 4.237 4.237 0 0 0 1.1-2.6 4.385 4.385 0 0 1 .415-1.441.342.342 0 0 1 .1-.01 5.189 5.189 0 0 1 1.353.36 6.4 6.4 0 0 0 2.029.474 2.3 2.3 0 0 0 .792-.132 4.213 4.213 0 0 0 1.904-2.052c.238-.4.678-1.142.9-1.221a4.393 4.393 0 0 1 1.22.819 4.294 4.294 0 0 0 2.555 1.3 4.286 4.286 0 0 0 2.554-1.3 4.5 4.5 0 0 1 1.212-.821c.227.071.672.821.911 1.223a4.211 4.211 0 0 0 1.913 2.053 2.321 2.321 0 0 0 .792.132 6.375 6.375 0 0 0 2.029-.475 5.176 5.176 0 0 1 1.354-.359.8.8 0 0 1 .086 0 4.217 4.217 0 0 1 .425 1.446 4.239 4.239 0 0 0 1.1 2.6 4.248 4.248 0 0 0 2.757.638 4.394 4.394 0 0 1 1.486.159 4.164 4.164 0 0 1-.091 1.5 4.255 4.255 0 0 0 .152 2.831 4.231 4.231 0 0 0 2.363 1.532 4.382 4.382 0 0 1 1.352.662 4.209 4.209 0 0 1-.6 1.361 4.277 4.277 0 0 0-.832 2.727A4.2 4.2 0 0 0 54.38 25.4c.359.308 1.026.882 1.053 1.112-.027.237-.694.81-1.053 1.119a4.2 4.2 0 0 0-1.68 2.229 4.284 4.284 0 0 0 .833 2.727 4.453 4.453 0 0 1 .6 1.346 4.114 4.114 0 0 1-1.358.677 4.234 4.234 0 0 0-2.362 1.532 4.249 4.249 0 0 0-.153 2.831 4.407 4.407 0 0 1 .1 1.486 4.138 4.138 0 0 1-1.5.17 4.248 4.248 0 0 0-2.757.638 4.239 4.239 0 0 0-1.1 2.6 4.361 4.361 0 0 1-.415 1.441.334.334 0 0 1-.1.01 5.189 5.189 0 0 1-1.353-.36 6.4 6.4 0 0 0-2.029-.474 2.3 2.3 0 0 0-.792.132 4.213 4.213 0 0 0-1.914 2.052c-.239.4-.684 1.152-.894 1.221a4.236 4.236 0 0 1-1.228-.819 4.291 4.291 0 0 0-2.554-1.3 4.286 4.286 0 0 0-2.555 1.3 4.5 4.5 0 0 1-1.212.821c-.227-.071-.671-.821-.91-1.223a4.218 4.218 0 0 0-1.914-2.053 2.321 2.321 0 0 0-.792-.132 6.375 6.375 0 0 0-2.029.475 5.181 5.181 0 0 1-1.353.359.834.834 0 0 1-.087-.005 4.217 4.217 0 0 1-.425-1.446 4.239 4.239 0 0 0-1.1-2.6 4.248 4.248 0 0 0-2.757-.638 4.394 4.394 0 0 1-1.486-.159 4.164 4.164 0 0 1 .09-1.497zm6.774 26.589l-1.114-13.314-11.042.741 7.651-11.325a2.2 2.2 0 0 1 1.24.369c.955.8.582 3.517 1.667 4.145a1.158 1.158 0 0 0 .592.14c.992 0 2.381-.834 3.382-.834a1.311 1.311 0 0 1 .45.072c1.163.423 1.743 3.1 2.989 3.32a.868.868 0 0 0 .161.014 2.847 2.847 0 0 0 1.55-.8l2.118 3.153zm22.326-12.252l-1.115 13.314-10.361-15.377-.6-.9-1.938-2.886a2.625 2.625 0 0 1 1.45-.693c1.217 0 2.6 2.117 3.781 2.117a.963.963 0 0 0 .161-.013c1.246-.219 1.826-2.9 2.989-3.321a1.315 1.315 0 0 1 .45-.071c1 0 2.39.834 3.382.834a1.168 1.168 0 0 0 .592-.14c1.085-.628.712-3.343 1.667-4.145a3.677 3.677 0 0 1 2.159-.4l8.427 12.422z" fill="#36384b"/><path d="M33.727 43.606a17.1 17.1 0 1 1 17.094-17.1 17.114 17.114 0 0 1-17.094 17.1z" fill="#a2acff"/><path d="M33.727 9.916a16.6 16.6 0 1 1-16.6 16.6 16.614 16.614 0 0 1 16.6-16.595m0-1a17.6 17.6 0 1 0 17.6 17.6 17.6 17.6 0 0 0-17.6-17.595z" fill="#36384b"/><circle cx="8.805" cy="21.094" r="1.166" fill="#a9ffd6"/><circle cx="64.721" cy="38.75" r=".583" fill="#a9ffd6"/><path d="M40.326 19.424l-9.165 9.413-4.028-4.168a2.232 2.232 0 0 0-3.209 3.1l5.627 5.821a2.232 2.232 0 0 0 1.6.681 2.232 2.232 0 0 0 1.6-.675l10.77-11.061a2.231 2.231 0 0 0-3.2-3.113z" fill="#fff"/></g></svg>