<svg data-name="Layer 1" xmlns="http://www.w3.org/2000/svg" viewBox="0 0 61.498 61.311"><ellipse cx="31.264" cy="42.96" rx="26.195" ry="18.351" fill="#a9ffd6"/><path fill="#fff" d="M9.683 2.753h40.795v53.281H9.683z"/><path d="M50.98 56.534H9.18V2.253h41.8zm-40.8-1h39.8V3.253h-39.8z" fill="#36384b"/><path fill="#fff" d="M48.226 53.781H7.43V.5h32.651l8.145 8.246v45.035z"/><path d="M14.386 13.324h4.653a1.045 1.045 0 0 0 1.039-1.177c-.263-2.03-1.229-3.086-2.474-3.407a2 2 0 1 0-1.778 0c-1.245.321-2.211 1.377-2.475 3.407a1.047 1.047 0 0 0 1.035 1.177zm28.393 6.145H17.846a.5.5 0 0 1 0-1h24.933a.5.5 0 0 1 0 1zm0 3.414H17.846a.5.5 0 0 1 0-1h24.933a.5.5 0 0 1 0 1zm0 3.41H17.846a.5.5 0 0 1 0-1h24.933a.5.5 0 0 1 0 1zm0 9.518H12.385a.5.5 0 0 1 0-1h30.394a.5.5 0 0 1 0 1zm0-3.224H12.385a.5.5 0 0 1 0-1h30.394a.5.5 0 0 1 0 1zm0 6.637H12.385a.5.5 0 0 1 0-1h30.394a.5.5 0 0 1 0 1zm0 3.414H12.385a.5.5 0 0 1 0-1h30.394a.5.5 0 0 1 0 1zm0 3.414H12.385a.5.5 0 0 1 0-1h30.394a.5.5 0 0 1 0 1zM34.945 8.037H24.723a.5.5 0 0 1 0-1h10.222a.5.5 0 0 1 0 1zm2.877 2.696h-13.1a.5.5 0 0 1 0-1h13.1a.5.5 0 0 1 0 1zm0 2.56h-13.1a.5.5 0 0 1 0-1h13.1a.5.5 0 0 1 0 1z" fill="#36384b"/><path fill="#fff" d="M48.238 8.746L40.081.513l.025 8.258 8.132-.025z"/><path d="M48.726 8.641v-.1l-.115-.117c-.008-.009-.008-.021-.016-.03l-4.256-4.301-4.047-4.1H6.931v54.288h41.8V8.693a.451.451 0 0 0-.005-.052zm-5.124-3.865l3.431 3.474-6.428.019-.02-6.538zM7.931 53.281V1h31.652l.024 7.773a.5.5 0 0 0 .147.353.506.506 0 0 0 .353.145l7.617-.024v44.034zM1.749 26.454h.583v1.166h-.583zm0 2.915h.583v1.166h-.583zm1.166-1.166h1.166v.583H2.915zm-2.915 0h1.166v.583H0M57.521 4.829h.583v1.166h-.583zm0 2.916h.583v1.166h-.583zm1.166-1.167h1.166v.583h-1.166zm-2.915 0h1.166v.584h-1.166" fill="#36384b"/><circle cx="58.978" cy="29.078" r="1.166" fill="#a9ffd6"/><path d="M43.26 36.847c.559-1.254 3.345-3.926 3.916-4.954 1.141-2.057.194-4.862 2.995-4.862 1.245 0 5.05 3.137-.938 11.268a35.472 35.472 0 0 1 9.183 0 2.768 2.768 0 0 1 2.2 2.393 2.575 2.575 0 0 1-1.321 2.418 2.516 2.516 0 0 1-.155 4.812 2.672 2.672 0 0 1 1.545 2.405 2.5 2.5 0 0 1-2.28 2.406 1.929 1.929 0 0 1 1.346 1.7c0 2.282-1.95 2.839-3.528 3.268a21.572 21.572 0 0 1-6.736.259c-2.956-.207-6.292-1.5-10.534-1.993V42.449a14.021 14.021 0 0 0 4.307-5.602zM30.601 57.393a.7.7 0 0 0 .7.7h6.957a.7.7 0 0 0 .7-.7v-16.35a.7.7 0 0 0-.7-.7h-6.961a.7.7 0 0 0-.7.7z" fill="#fff"/><path d="M38.254 58.593h-6.957a1.2 1.2 0 0 1-1.2-1.2V41.044a1.2 1.2 0 0 1 1.2-1.2h6.957a1.2 1.2 0 0 1 1.2 1.2v.342a14.647 14.647 0 0 0 3.355-4.743 16.359 16.359 0 0 1 2.33-3.033 16.935 16.935 0 0 0 1.6-1.96 6.75 6.75 0 0 0 .619-2.084c.261-1.423.557-3.035 2.814-3.035a3.007 3.007 0 0 1 2.33 1.8c.674 1.334 1.226 4.273-2.22 9.353a33.894 33.894 0 0 1 8.24.126 3.246 3.246 0 0 1 2.59 2.883 3.122 3.122 0 0 1-.881 2.32 3.01 3.01 0 0 1 1.267 2.556 2.735 2.735 0 0 1-1.367 2.424 3.088 3.088 0 0 1 1.051 2.332 2.882 2.882 0 0 1-1.631 2.568 2.063 2.063 0 0 1 .7 1.542c0 2.69-2.345 3.328-3.9 3.751a21.681 21.681 0 0 1-6.9.276 31.313 31.313 0 0 1-4.821-.891 52.691 52.691 0 0 0-5.179-1.034v.856a1.2 1.2 0 0 1-1.197 1.2zm1.2-3.059a52.868 52.868 0 0 1 5.41 1.07 29.9 29.9 0 0 0 4.661.866 20.878 20.878 0 0 0 6.569-.242c1.79-.487 3.159-1 3.159-2.786 0-.186 0-.754-1.058-1.252l-1.537-.722 1.681-.23a2.007 2.007 0 0 0 1.846-1.911 2.183 2.183 0 0 0-1.269-1.958l-1.034-.518 1.085-.4a2.017 2.017 0 0 0 .172-3.858l-1.057-.331.946-.575a2.081 2.081 0 0 0 1.08-1.99 2.284 2.284 0 0 0-1.8-1.9 35.044 35.044 0 0 0-9.018.007l-1.152.142.688-.935c3.843-5.218 3.393-8.018 2.783-9.229a2.126 2.126 0 0 0-1.438-1.251c-1.366 0-1.549.68-1.831 2.216a7.638 7.638 0 0 1-.727 2.388 16.283 16.283 0 0 1-1.721 2.137 16.548 16.548 0 0 0-2.175 2.779 14.9 14.9 0 0 1-4.267 5.651zm-8.157-14.687a.2.2 0 0 0-.2.2v16.346a.2.2 0 0 0 .2.2h6.957a.2.2 0 0 0 .2-.2V41.044a.2.2 0 0 0-.2-.2z" fill="#36384b"/><rect x="31.101" y="40.848" width="7.348" height="16.74" rx=".22" fill="#a2acff"/><path d="M13.844 24.868l-1.205 1.235-.528-.547a.293.293 0 0 0-.421.407l.738.763a.292.292 0 0 0 .21.089.289.289 0 0 0 .209-.088l1.413-1.451a.293.293 0 0 0-.42-.408zm0-3.414l-1.205 1.239-.528-.547a.293.293 0 0 0-.421.407l.738.763a.292.292 0 0 0 .21.089.289.289 0 0 0 .209-.088l1.413-1.451a.293.293 0 0 0-.42-.408zm0-3.414l-1.2 1.235-.528-.547a.293.293 0 0 0-.421.407l.738.763a.292.292 0 0 0 .21.089.289.289 0 0 0 .209-.088l1.413-1.45a.293.293 0 0 0-.42-.409z" fill="#36384b"/></svg>