<svg xmlns="http://www.w3.org/2000/svg" viewBox="0 0 72 72"><g data-name="Layer 1"><ellipse cx="38.662" cy="27.307" rx="26.195" ry="18.351" fill="#a9ffd6"/><path d="M43.31 36.719c-7.72.515-10.82 2.353-11.2 4.97 2.315 6.779 6.891 11.54 16.73 11.6 9.991-.884 15.2-4.7 16.645-10.833.961-4.142-4.619-5.178-11.2-5.739-1.163 5.796-10.133 5.383-10.975.002z" fill="#a3acff"/><path fill="#fff" d="M43.97 34.141l-1.154 3.786 1.902 2.013 4.126 1.182 2.67-.807 2.415-1.205.788-2.03-1.089-2.939H43.97z"/><path d="M57.3 23.422c-.028-8.192-4.436-8.882-8.46-8.882-4.36 0-8.355.678-8.422 8.751" fill="#a3acff"/><path d="M56.533 25.168c-.079.475-.082 1.284-.158 1.7s-.14.773-.192 1.1a13.814 13.814 0 0 1-3.444 7.242c-.94.942-3.218 1.025-3.895 1.028h-.114c-.676 0-2.955-.086-3.894-1.028a15.39 15.39 0 0 1-3.28-6.3 25.4 25.4 0 0 1-.676-3.776l15.653.039" fill="#fff"/><path d="M48.747 22.122c-6.6 0-8.2.856-8.284 1.043a1.55 1.55 0 0 0 .206 1.443c.522.753 1.663 1.253 3.391 1.484.425.057 2.681.112 4.983.112a47.056 47.056 0 0 0 5.037-.176c1.555-.24 2.564-.721 3-1.431a1.511 1.511 0 0 0 .071-1.459c-.099-.179-1.799-1.016-8.404-1.016z" fill="#a3acff"/><path d="M38.291 46.523L36.247 38.5a.461.461 0 0 1 .334-.561v-.009c-1.946.383-3.715 1.088-4.256 2.379-.574 1.368-.007 3.662 1.445 5.845a15.257 15.257 0 0 0 5 4.629c-.02-.106-.035-.2-.041-.248zm2.191-8.694l2.472 5.98h11.084l2.506-6.013" fill="none" stroke="#36384b" stroke-miterlimit="10" stroke-width="1.233"/><path d="M60.355 37.807a20.443 20.443 0 0 0-3.685-.307l-2.632 6.311H42.954l-2.472-5.98a.524.524 0 0 0-.636-.286 25.358 25.358 0 0 0-3.265.393.461.461 0 0 0-.334.561l2.044 8.026.44 4.009c.006.051.021.142.041.248a19.594 19.594 0 0 0 10.072 2.511 19.933 19.933 0 0 0 9.385-2.132c.015-.1.025-.191.032-.258l.442-4.387 1.991-8.149a.462.462 0 0 0-.339-.56z" fill="#fff"/><path d="M65.929 40.067c-.606-1.444-2.451-2.414-5.486-2.881l-.207-.032a23.029 23.029 0 0 0-3.566-.272h-1.685a8.659 8.659 0 0 1-.425-3.029 14.994 14.994 0 0 0 2.231-5.79c.053-.322.118-.688.19-1.087a8.744 8.744 0 0 0 .086-.9c.013-.2.028-.4.048-.584a2.621 2.621 0 0 0 .489-.576 3.242 3.242 0 0 0 .317-1.5c-.028-8.346-4.38-9.5-9.077-9.5-4.323 0-8.937.723-9.035 9.286a2.154 2.154 0 0 0 .353 1.749c.064.093.142.248.105.237a25.935 25.935 0 0 0 .692 3.86 17.152 17.152 0 0 0 2.108 4.834 8.522 8.522 0 0 1-.449 2.987h-.592a33.336 33.336 0 0 0-3.833.187l-.326.037-.074.008a12.525 12.525 0 0 0-1.364.229 1.079 1.079 0 0 0-.781 1.311l2.029 7.941.439 4c.006.062.025.174.048.3l.052.277.243.143a20.3 20.3 0 0 0 10.385 2.6 21.187 21.187 0 0 0 8.591-1.684l-.008.05 1.087-.568.274-.144v-.015a16.1 16.1 0 0 0 5.637-5.054c1.59-2.381 2.165-4.842 1.504-6.42zm-24.55-1.945c.3-.009.577-.012.828-.012a7.372 7.372 0 0 0 6.638 3.628 7.236 7.236 0 0 0 6.555-3.621h.342l-2.117 5.076H43.366l-2.1-5.08h.113zm13.659-.005zM41 23.539c.4-.181 2.185-.8 7.75-.8 5.719 0 7.525.636 7.9.8a.886.886 0 0 1-.1.733 3.661 3.661 0 0 1-2.568 1.144 45.412 45.412 0 0 1-4.942.169c-2.348 0-4.523-.057-4.9-.108-1.527-.2-2.552-.627-2.966-1.224a.971.971 0 0 1-.174-.714zm7.847-8.382c3.737 0 7.387.578 7.8 7.075a30.582 30.582 0 0 0-7.9-.727 30.2 30.2 0 0 0-7.666.693c.389-6.479 3.747-7.041 7.763-7.041zm-7.222 10.931a8.553 8.553 0 0 0 2.353.615c.477.064 2.8.118 5.065.118a50.126 50.126 0 0 0 5.132-.183 8.568 8.568 0 0 0 1.646-.407 5.45 5.45 0 0 1-.052.527c-.075.408-.142.781-.2 1.11a13.169 13.169 0 0 1-3.269 6.905c-.616.617-2.249.841-3.461.847h-.109c-1.212-.006-2.845-.23-3.461-.847a14.706 14.706 0 0 1-3.118-6.018 24.9 24.9 0 0 1-.526-2.667zm2.775 9.556c1.077 1.079 3.386 1.2 4.329 1.209h.12c.942 0 3.251-.13 4.328-1.209a6.98 6.98 0 0 0 .219-.233 8.475 8.475 0 0 0 .624 2.364l.07.144a5.935 5.935 0 0 1-5.244 2.586 6.07 6.07 0 0 1-5.283-2.574l.079-.224a12.622 12.622 0 0 0 .567-2.275c.063.068.133.154.191.212zm-5.063 14.749l-.448-4.022-2.005-7.871c.32-.069.694-.124 1.067-.169.138-.018.275-.032.413-.047.5-.051.959-.084 1.24-.1l.223-.017.123-.006 2.592 6.268h11.907l2.63-6.306a18.69 18.69 0 0 1 2.978.25l-1.968 8.083-.434 4.307a19.579 19.579 0 0 1-8.81 1.914 19.207 19.207 0 0 1-9.508-2.284zM63.4 45.81a14.6 14.6 0 0 1-4.434 4.218l.334-3.367 1.972-8.07c1.947.419 3.156 1.087 3.519 1.953.488 1.164-.07 3.281-1.391 5.266z" fill="#36384b"/><path d="M19.891 45.968c-9.552.638-13.079 1.943-13.544 5.182 2.865 8.387 8.527 14.279 20.7 14.356 12.362-1.094 18.806-5.821 20.6-13.4 1.189-5.125-5.715-6.407-13.856-7.1-1.448 7.163-12.858 7.619-13.9.962z" fill="#a3acff"/><circle cx="7.426" cy="40.36" r=".583" fill="#a9ffd6"/><circle cx="58.057" cy="6.801" r="1.166" fill="#a9ffd6"/><path fill="#36384b" d="M62.441 8.259h.583v1.166h-.583zm0 2.915h.583v1.166h-.583zm1.166-1.166h1.166v.583h-1.166zm-2.915 0h1.166v.583h-1.166M12.454 38.792h.583v1.166h-.583zm0 2.915h.583v1.166h-.583zm1.166-1.166h1.166v.583H13.62zm-2.915 0h1.166v.583h-1.166"/><path fill="#fff" d="M21.439 39.532l-1.812 7.863 6.552 3.314 5.759-1.594 2.198-3.145-1.259-4.035-11.438-2.403z"/><path d="M37.518 28.546c-.035-10.137-5.49-10.991-10.47-10.991-5.394 0-10.338.839-10.421 10.828" fill="#a3acff"/><path d="M36.563 30.707c-.1.587-.1 1.588-.2 2.1-.09.5-.173.956-.238 1.359a17.1 17.1 0 0 1-4.261 8.961C30.706 44.3 27.886 44.4 27.049 44.4h-.141c-.836 0-3.656-.106-4.819-1.272a19.053 19.053 0 0 1-4.058-7.8 31.446 31.446 0 0 1-.837-4.673l19.369.049" fill="#fff"/><path d="M26.929 26.937c-8.172 0-10.15 1.059-10.25 1.291a1.915 1.915 0 0 0 .254 1.785c.646.933 2.058 1.55 4.2 1.836.526.071 3.317.14 6.166.14a58.531 58.531 0 0 0 6.233-.218c1.924-.3 3.172-.893 3.71-1.771a1.876 1.876 0 0 0 .088-1.806c-.125-.221-2.23-1.257-10.401-1.257z" fill="#a3acff"/><path fill="none" stroke="#36384b" stroke-miterlimit="10" stroke-width="1.233" d="M16.701 46.373l3.06 7.4h13.715l3.101-7.441"/><path d="M41.293 46.346a25.328 25.328 0 0 0-4.56-.382l-3.257 7.809H19.761l-3.06-7.4a.649.649 0 0 0-.787-.354 31.287 31.287 0 0 0-4.039.487.569.569 0 0 0-.413.694l2.529 9.931.544 4.961c.007.063.025.176.05.306a24.242 24.242 0 0 0 12.465 3.108 24.671 24.671 0 0 0 11.612-2.638c.019-.121.031-.236.04-.32l.546-5.428 2.464-10.083a.572.572 0 0 0-.419-.691z" fill="#fff"/><path d="M48.055 49.2c-.73-1.738-2.975-2.908-6.675-3.477l-.149-.023a27.372 27.372 0 0 0-4.5-.352h-2.187a10.832 10.832 0 0 1-.568-3.921 18.617 18.617 0 0 0 2.761-7.163c.065-.4.146-.852.237-1.348.049-.274.077-.677.1-1.091.018-.279.039-.55.066-.792a3.009 3.009 0 0 0 .618-.713 2.4 2.4 0 0 0 .362-1.43h.006c-.026-10.19-5.34-11.951-11.078-11.951-5.525 0-10.924.883-11.035 11.374a2.546 2.546 0 0 0 .413 2.052c.049.07.11.135.166.2a38.422 38.422 0 0 0 .842 4.914 21.037 21.037 0 0 0 2.613 5.979 10.817 10.817 0 0 1-.595 3.883h-.8c-.7-.007-1.689 0-2.817.068h-.019a35.814 35.814 0 0 0-3.32.345v-.01l-.736.145c-3.13.615-5.052 1.729-5.716 3.309-.8 1.907-.093 4.9 1.844 7.814a19.618 19.618 0 0 0 6.142 5.763v.014l.242.141h.006l1.166.682-.012-.063a25.508 25.508 0 0 0 11.615 2.57 25.939 25.939 0 0 0 10.829-2.189l-.007.049 1.079-.564.277-.145v-.015a19.746 19.746 0 0 0 6.985-6.242c1.938-2.913 2.644-5.907 1.845-7.813zm-6.944-2.3v-.007h.006zm-5.377-.314h.073l-2.742 6.575H20.173l-2.719-6.576.353-.006v.014c.41-.012.782-.015 1.114-.015a8.971 8.971 0 0 0 8.127 4.49 8.812 8.812 0 0 0 8.032-4.481zm-1.016 0zM17.21 28.59c.4-.2 2.5-1.036 9.719-1.036 7.383 0 9.517.846 9.9 1.033a1.26 1.26 0 0 1-.114 1.091c-.432.7-1.566 1.218-3.278 1.484-.407.063-1.127.112-2.083.148l-9.371-.023a11.31 11.31 0 0 1-.769-.049c-1.931-.258-3.235-.8-3.772-1.575a1.353 1.353 0 0 1-.232-1.073zm9.838-10.418c4.736 0 9.356.747 9.807 9.109-1.468-.519-4.567-.961-9.926-.961-4.52 0-7.933.337-9.641.914.427-8.334 4.672-9.062 9.76-9.062zm-9.119 13.416a9.851 9.851 0 0 0 3.118.872c.584.079 3.446.145 6.248.145a61.758 61.758 0 0 0 6.328-.225 9.823 9.823 0 0 0 2.222-.587c-.022.344-.042.678-.083.906-.092.5-.175.966-.241 1.371a16.474 16.474 0 0 1-4.088 8.63c-.791.793-2.785 1.083-4.418 1.091h-.1c-1.6-.008-3.6-.3-4.387-1.091a18.35 18.35 0 0 1-3.9-7.515 30.122 30.122 0 0 1-.699-3.597zm3.723 11.978c1.292 1.295 4.105 1.448 5.254 1.453h.146c1.149 0 3.961-.158 5.254-1.453.069-.069.244-.251.485-.535a10.775 10.775 0 0 0 .793 3.212l.127.258a7.5 7.5 0 0 1-6.662 3.33 7.663 7.663 0 0 1-6.7-3.3l.125-.355a14.961 14.961 0 0 0 .75-3.085c.153.181.299.345.428.475zM8.915 56.33c-1.66-2.495-2.356-5.169-1.733-6.654.418-.987 1.678-1.776 3.684-2.316l.118.462 2.4 9.42.246 2.232.187 1.711a18.11 18.11 0 0 1-4.902-4.855zm6.231 5.68l-.013-.121-.533-4.825-.01-.039-.006-.046-1.531-5.888-1.029-3.991a13.91 13.91 0 0 1 1.527-.254c.162-.021.324-.038.485-.056a47.968 47.968 0 0 1 1.563-.132l.308-.024c.08-.005.154-.008.232-.011l3.21 7.762h14.538l3.255-7.8a22.154 22.154 0 0 1 3.961.349l-2.468 10.125-.546 5.41a24.348 24.348 0 0 1-11.04 2.42 23.881 23.881 0 0 1-11.903-2.879zm30.039-5.68a18.256 18.256 0 0 1-5.785 5.417l.447-4.48 2.464-10.083.009-.041c2.54.529 4.12 1.4 4.6 2.533.62 1.485-.076 4.158-1.735 6.654z" fill="#36384b"/></g></svg>