<svg xmlns="http://www.w3.org/2000/svg" viewBox="0 0 72 72"><g data-name="Layer 1"><path fill="#a2acff" d="M22.375 24.625H49.68v25.932H22.375z"/><circle cx="35.944" cy="38.16" r="9.698" fill="#fff"/><path d="M27.937 38.16l3.433-1.472 3.567.9 4.017 1.847H42l2.02-1.376c-.3 4.563-2.988 7.271-7.989 8.188-4.71-.329-7.174-3.301-8.094-8.087z" fill="#fff"/><circle cx="45.74" cy="21.24" r=".948" fill="#a2acff"/><ellipse cx="28.562" cy="21.25" rx="3.562" ry=".708" fill="#a2acff"/><path d="M61.329 25.845A27.066 27.066 0 0 0 49.68 12.156l.5-.865a28.075 28.075 0 0 1 12.08 14.2zm2.307 9.693h-1a26.449 26.449 0 0 1-20.928 25.78l-.437-2.2-2.933 3.485 4 1.865L41.9 62.3a27.449 27.449 0 0 0 21.736-26.762zm-2.049-4.724l.008-.583 1.166.015-.008.583zm-2.915-.038l.008-.583 1.166.015-.008.583zm1.726 1.771l.015-1.166.583.008-.015 1.166zm.039-2.915l.015-1.166.583.008-.015 1.166zM38.954 8.53l-3.429-2.775L35.418 8A27.5 27.5 0 0 0 8.7 35.368v.17A27.387 27.387 0 0 0 12.95 50.1l.806-.594A26.391 26.391 0 0 1 9.7 35.536v-.166A26.5 26.5 0 0 1 35.37 9l-.1 2.2zm-20.47 47.951a27.32 27.32 0 0 0 12.706 5.993l.18-.985a26.312 26.312 0 0 1-12.192-5.734z" fill="#36384b"/><path fill="#36384b" d="M15.398 38.09l.008-.582 1.166.015-.008.583zm-2.915-.037l.008-.583 1.166.015-.008.583zm1.727 1.771l.014-1.166.583.008-.015 1.166zm.037-2.915l.015-1.166.583.008-.015 1.166zm-8.921 2.029c-2.164-12.909 6.092-27.07 18.405-31.569l.343.94C12.191 12.65 4.224 26.315 6.312 38.771zM46.7 63.6l-.2-.981c10.643-2.163 16.421-11.512 18.135-18.86l.973.226C63.831 51.621 57.81 61.34 46.7 63.6z"/><circle cx="17.436" cy="32.729" r=".583" fill="#a9ffd6"/><circle cx="44.792" cy="11.291" r="1.166" fill="#a9ffd6"/><path d="M45.481 34.151a10.311 10.311 0 1 0 .81 4.006 10.277 10.277 0 0 0-.81-4.006zm-.29 4.006A9.191 9.191 0 1 1 36 28.966a9.2 9.2 0 0 1 9.191 9.191z" fill="#36384b"/><path d="M43.8 34.863a8.488 8.488 0 1 0 .665 3.294 8.425 8.425 0 0 0-.665-3.294zM30.476 37.67a7.061 7.061 0 0 1 5.25.964 8.807 8.807 0 0 0 4.409 1.266 7.1 7.1 0 0 0 1.69-.2 6.884 6.884 0 0 0 1.468-.537 7.361 7.361 0 0 1-14.647-.709 5.619 5.619 0 0 1 1.83-.784zm11.048.975a7.077 7.077 0 0 1-5.25-.964 8.772 8.772 0 0 0-4.408-1.27 7.138 7.138 0 0 0-1.691.2 6.884 6.884 0 0 0-1.468.537 7.361 7.361 0 0 1 14.647.709 5.593 5.593 0 0 1-1.83.788z" fill="#36384b"/><path d="M48.354 17.471H23.646a1.883 1.883 0 0 0-1.882 1.882v30.42a1.883 1.883 0 0 0 1.882 1.882h24.708a1.883 1.883 0 0 0 1.882-1.882v-30.42a1.883 1.883 0 0 0-1.882-1.882zM22.863 25.02h26.274v24.753a.784.784 0 0 1-.783.784H23.646a.784.784 0 0 1-.783-.784zm0-5.667a.784.784 0 0 1 .783-.784h24.708a.784.784 0 0 1 .783.784v4.568H22.863z" fill="#36384b"/><path d="M31.476 19.9h-5.924a1.347 1.347 0 0 0 0 2.694h5.924a1.347 1.347 0 0 0 0-2.694zm.248 1.347a.248.248 0 0 1-.248.248h-5.924a.248.248 0 0 1 0-.5h5.924a.248.248 0 0 1 .248.25zm13.919-1.624a1.622 1.622 0 1 0 1.622 1.622 1.625 1.625 0 0 0-1.622-1.622zm.523 1.622a.524.524 0 1 1-.523-.523.524.524 0 0 1 .523.523z" fill="#36384b"/></g></svg>