<svg xmlns="http://www.w3.org/2000/svg" viewBox="0 0 72 72"><g data-name="Layer 1"><path d="M42.927 22.893a17.6 17.6 0 1 0 17.6 17.6 17.621 17.621 0 0 0-17.6-17.6zm0 20.184a2.73 2.73 0 0 1-2.558-2.582 2.632 2.632 0 0 1 2.563-2.469 2.691 2.691 0 0 1 2.625 2.469 2.8 2.8 0 0 1-2.63 2.582zm-15.874-20.74l1.966 2.896 3.372-2.621-2.365-2.405-2.973 2.13zm11.473-10.536h9.132v3.693h-9.132z" fill="#a3acff"/><circle cx="43.071" cy="40.495" r="2.702" fill="#a9ffd6"/><path d="M61.96 23.963l-.84.756a24.133 24.133 0 0 1 4.839 22.834l1.073.35a25.269 25.269 0 0 0-5.072-23.94zm-7.824 5.887a.562.562 0 0 0-.563-.564.557.557 0 0 0-.4.165l-8.195 8.194a3.548 3.548 0 1 0 .8.8l8.194-8.194a.559.559 0 0 0 .164-.401zM42.927 42.888a2.393 2.393 0 1 1 2.394-2.393 2.4 2.4 0 0 1-2.394 2.393zM3.525 39.931h16.883v1.128H3.525z" fill="#36384b"/><path d="M42.927 22.472a18.036 18.036 0 0 0-16.8 11.544H9.851v1.129h15.864a18.055 18.055 0 0 0 0 10.7h-9.969v1.128h10.383a18.015 18.015 0 1 0 16.8-24.5zm.565 35.174V55.42a.565.565 0 0 0-1.129 0v2.233a17.2 17.2 0 0 1-15.338-10.679h2.744v-1.128h-3.157a16.99 16.99 0 0 1 0-10.7h4.065v-1.13h-3.652a17.2 17.2 0 0 1 15.338-10.68v2.234a.565.565 0 0 0 1.129 0v-2.227a17.178 17.178 0 0 1 16.587 16.588h-2.226a.564.564 0 1 0 0 1.128h2.226a17.176 17.176 0 0 1-16.587 16.587zm-31.689-11.8h1.128v1.128h-1.128z" fill="#36384b"/><path d="M43.492 19.258v-2.844h3.378a1.551 1.551 0 0 0 1.55-1.55v-1.971a1.552 1.552 0 0 0-1.55-1.551h-7.886a1.552 1.552 0 0 0-1.55 1.551v1.971a1.551 1.551 0 0 0 1.55 1.55h3.379v2.834a21.248 21.248 0 0 0-10.2 2.92l-1.947-2.482-3.744 2.92 1.913 2.362.269-.218a21.244 21.244 0 0 0-4.088 5.017l.985.552a20.137 20.137 0 1 1 0 20.352l-.985.552a21.263 21.263 0 1 0 18.926-31.965zm-4.929-3.973v-2.814h8.729v2.814zm-10.9 7.458l2.4-1.876 1.37 1.747a21.366 21.366 0 0 0-2.419 1.8zM56.82 11.828h.583v1.166h-.583zm0 2.915h.583v1.166h-.583zm1.166-1.166h1.166v.583h-1.166zm-2.915 0h1.166v.583h-1.166zm-36.675 7.902h.583v1.166h-.583zm0 2.915h.583v1.166h-.583zm1.166-1.166h1.166v.583h-1.166zm-2.915 0h1.166v.583h-1.166z" fill="#36384b"/><circle cx="59.975" cy="17.981" r=".583" fill="#a9ffd6"/><circle cx="16.647" cy="16.019" r="1.166" fill="#a9ffd6"/></g></svg>