<svg xmlns="http://www.w3.org/2000/svg" viewBox="0 0 72 72"><g data-name="Layer 1"><path d="M59.965 32.622l-2.877.653c-.1-.669-.212-1.3-.351-1.909a24.26 24.26 0 0 0-23.461-18.773 24.046 24.046 0 1 0 5.334 47.488 33.517 33.517 0 0 0 5.711-1.928l.757-.331-.183-.806-1.323-5.816-.286-1.259-.91.47-1.406-2.338a.726.726 0 1 0-1.253.733l1.3 2.224a32.05 32.05 0 0 1-4.154 1.37 16.2 16.2 0 0 1-2.742.358l-.015-2.412a.726.726 0 0 0-1.452.008l.014 2.427A16.11 16.11 0 0 1 25.824 51l1.2-2.113a.726.726 0 0 0-1.263-.718l-1.2 2.108a16.005 16.005 0 0 1-4.961-5.013l2.031-1.188a.727.727 0 1 0-.734-1.254L18.887 44a16.161 16.161 0 0 1-1.749-6.772l2.217-.013a.726.726 0 0 0-.009-1.452l-2.193.013a15.978 15.978 0 0 1 1.862-6.667l1.8 1.026a.726.726 0 0 0 .719-1.262l-1.788-1.018a16.068 16.068 0 0 1 4.881-4.82l1 1.7A.726.726 0 1 0 26.878 24l-.987-1.687a15.366 15.366 0 0 1 6.586-1.762l.011 1.91a.726.726 0 0 0 1.452-.009l-.011-1.918a15.961 15.961 0 0 1 6.586 1.726l-.947 1.664a.726.726 0 0 0 1.263.718l.949-1.668a16.453 16.453 0 0 1 4.92 4.743l-1.73 1.013a.726.726 0 0 0 .733 1.254l1.756-1.028a15.919 15.919 0 0 1 1.593 4.157 15.547 15.547 0 0 1 .308 1.92l-3.464.787-2.166.492 1.8 1.3 8.841 6.344.917.659.543-.991 5.229-9.543 1.068-1.948zM54.957 43.14l-8.841-6.34 4.308-.979a18.131 18.131 0 0 0-.4-2.925 17.4 17.4 0 0 0-.814-2.582l2.226-.013A19.139 19.139 0 1 0 33.412 55.54c5.7-.034 8.162-2.807 8.968-4.019.071-.035.154-.071.217-.1l1.323 5.82a32.6 32.6 0 0 1-5.532 1.869 23.043 23.043 0 1 1 17.374-27.523 24.642 24.642 0 0 1 .47 2.909l3.954-.9z" fill="#36384b"/><path d="M33.157 64.133A27.5 27.5 0 0 1 6.422 42.742l.978-.222a26.469 26.469 0 0 0 31.677 19.944l.222.976a27.692 27.692 0 0 1-6.142.693zM57.5 26.128A26.465 26.465 0 0 0 27.342 10.84l-.221-.975a27.463 27.463 0 0 1 31.3 15.867zm-50.028 2.59l-.955-.3a28.077 28.077 0 0 1 11.119-14.957l.557.831A27.067 27.067 0 0 0 7.472 28.718zm15.612 8.954l9.886 1.2a.7.7 0 0 0 .772-.6l.9-6.609a.752.752 0 1 0-1.488-.218l-.74 5.335a.511.511 0 0 1-.566.436l-8.581-1.039a.711.711 0 0 0-.092-.006.752.752 0 0 0-.089 1.5z" fill="#36384b"/><circle cx="45.095" cy="62.685" r="1.166" fill="#a9ffd6"/><circle cx="26.932" cy="7.06" r=".583" fill="#a9ffd6"/><path fill="#36384b" d="M52.959 59.486h.583v1.166h-.583zm0 2.915h.583v1.166h-.583zm1.166-1.166h1.166v.583h-1.166zm-2.915 0h1.166v.583H51.21M19.965 7.635h.583v1.166h-.583zm0 2.915h.583v1.166h-.583zm1.166-1.166h1.166v.583h-1.166zm-2.915 0h1.166v.583h-1.166M45.705 53.36c1.939-1.832 3.3-3.133 3.3-4.223a1.015 1.015 0 0 0-1.079-1.143 1.967 1.967 0 0 0-1.352.775l-.956-.952a3.213 3.213 0 0 1 2.55-1.206 2.342 2.342 0 0 1 2.532 2.427c0 1.282-1.2 2.649-2.445 3.939.392-.044.923-.088 1.275-.088h1.534v1.482h-5.359zm9.416-3.393c0-.485.044-1.222.068-1.706h-.048c-.192.43-.408.852-.624 1.286l-1 1.663h4.127v1.344h-5.816v-1.22l2.781-4.58h2.157v7.617h-1.645zm5.379-4.111h1.15L59.238 56.29h-1.15zm5.442 2.381h-3.414v-1.483h5.3v1.086c-1.768 2.125-2.011 3.562-2.151 6.531h-1.769a10.18 10.18 0 0 1 2.034-6.134z"/><path d="M60.186 33.6l-3.954.9a24.642 24.642 0 0 0-.47-2.909 23.061 23.061 0 1 0-17.374 27.515 32.6 32.6 0 0 0 5.532-1.869l-1.32-5.82a31.278 31.278 0 0 1-5.512 1.958 17.147 17.147 0 1 1 12.938-20.484 18.131 18.131 0 0 1 .4 2.925l-4.308.979 8.841 6.345z" fill="#a3acff"/></g></svg>