<svg xmlns="http://www.w3.org/2000/svg" viewBox="0 0 72 72"><g data-name="Layer 1"><path fill="#a2acff" d="M20.461 16.197l-5.377 4.27V8.01h5.377v8.187z"/><ellipse cx="43.572" cy="45.878" rx="26.195" ry="18.351" fill="#a9ffd6"/><path fill="#fff" d="M29.753 9.452L10.651 24.517l38.767.283L29.753 9.452zM8.897 51.499h34.735v5.475H8.897z"/><path fill="#a2acff" d="M9.888 24.375l39.53.425-1.273 4.669.212 21.435H11.571l.371-21.577-2.054-4.952z"/><path fill="#fff" d="M19.494 33.713h7.711v8.56h-7.711z"/><path d="M8.028 56.559v.283H1.666v1h65.718v-1.024l-18.577.165h-.286V56.7l.026-27.329v-.063l.026-.056 1.911-4.115-.009-.05-.024-.185a1.027 1.027 0 0 0-.112-.335l-.168-.087L30.078 8.411a.489.489 0 0 0-.307-.108.508.508 0 0 0-.315.111l-7.941 6.2-.457.357V8.1a.5.5 0 0 0-.5-.5h-5.534a.5.5 0 0 0-.335.5v12l-.113.085-5.46 4.115a.332.332 0 0 0 .039.211l2.16 4.617.027.057V50.7H8.529a.5.5 0 0 0-.5.5zm7.5-37.83V8.6h4.533v7.173l-.109.085-3.967 3.091-.457.356zm-3.953 4.934L29.6 9.565l.174-.137.175.137 17.987 14.1.645.5H10.924zm-1.025 1.982l-.2-.408h38.957l-.184.4-1.5 3.258.026 21.512v.284H12.211v-.281l-.073-21.241.01-.21v-.078zM8.9 56.691V51.5h38.751v5.475H8.9z" fill="#36384b"/><path d="M67.44 57.9H1.609v-1.115h6.363V51.2a.558.558 0 0 1 .557-.557h2.756v-21.45l-.021-.046L9.1 24.53a.376.376 0 0 1-.043-.244v-.022l.019-.014 5.55-4.182V8.1a.562.562 0 0 1 .384-.552h5.542a.558.558 0 0 1 .557.558v6.751l8.312-6.487a.559.559 0 0 1 .692 0l20.094 16.066.173.087.009.014a1.106 1.106 0 0 1 .12.361l.035.247-.007.017-1.937 4.159v.05l-.025 27.558 18.862-.168zm-65.717-.113h65.6v-.912l-18.862.168V56.7l.03-27.415 1.931-4.155-.002-.03-.024-.189a.973.973 0 0 0-.1-.3l-.153-.079-20.1-16.076a.449.449 0 0 0-.552 0L21 15.084V8.1a.444.444 0 0 0-.444-.444h-5.533a.46.46 0 0 0-.278.439v12.03l-.135.1-5.44 4.1a.277.277 0 0 0 .034.152l2.194 4.7v21.577H8.529a.444.444 0 0 0-.444.444v5.7H1.723zm45.985-.756H8.841v-5.589h38.867zm-38.754-.113H47.6v-5.362H8.954zm38.755-6.17H12.154v-.338l-.072-21.242.01-.211V28.9l-1.834-3.72H49.4l-.22.482-1.492 3.246zm-35.441-.113H47.6v-.227l-.026-21.524v-.011l1.645-3.58h-38.78l1.761 3.588v.077l-.01.213zm36.473-26.409H10.76l.775-.607L29.771 9.356l.208.165zm-37.653-.113h37.325L29.771 9.5l-.14.109zm4.38-4.689V8.546h4.645V15.8l-.131.1zm.113-10.765v10.533L20 15.748V8.659z" fill="#36384b"/><path d="M28.063 32.752h-9.5V43.23h9.487c.013-3.917.02-8.543.013-10.478zM27.049 33.9v8.325h-7.482v-8.604h7.482zm26.953-.029h.583v1.166h-.583zm0 2.915h.583v1.166h-.583zm1.166-1.166h1.166v.583h-1.166zm-2.915 0h1.166v.583h-1.166M8.09 13.902h.583v1.166H8.09zm0 2.915h.583v1.166H8.09zm1.166-1.166h1.166v.583H9.256zm-2.915 0h1.166v.583H6.341" fill="#36384b"/><path d="M52.212 42.842a6.162 6.162 0 0 0-5.551 3.485 6.162 6.162 0 0 0-11.639 3.625c.983 6.523 11.639 13.276 11.639 13.276S57.316 56.475 58.3 49.952a6.164 6.164 0 0 0-6.088-7.11z" fill="#a2acff"/><path d="M52.212 42.842a6.162 6.162 0 0 0-5.551 3.485h0a6.162 6.162 0 0 0-11.639 3.625c.983 6.523 11.639 13.276 11.639 13.276S57.316 56.475 58.3 49.952a6.164 6.164 0 0 0-6.088-7.11z" fill="none" stroke="#36384b" stroke-miterlimit="10" stroke-width="1.132"/><path fill="#36384b" d="M61.481 41.198h.583v1.166h-.583zm0 2.916h.583v1.166h-.583zm1.166-1.166h1.166v.583h-1.166zm-2.915 0h1.166v.583h-1.166"/><circle cx="6.341" cy="45.7" r="1.166" fill="#a9ffd6"/></g></svg>