<svg xmlns="http://www.w3.org/2000/svg" viewBox="0 0 72 72"><g data-name="Layer 1"><ellipse cx="39.665" cy="44.613" rx="26.195" ry="18.351" fill="#a9ffd6"/><path fill="#fff" d="M6.511 58.462l18.587-8.485 17.803 8.126 18.588-8.485V13.67l-18.588 8.485-17.803-8.127-18.587 8.485v35.949z"/><path d="M6.011 59.24V22.191L25.1 13.479l17.8 8.126 19.088-8.713v37.047L42.9 58.653l-17.8-8.127zm1-36.406v34.85L25.1 49.427l17.8 8.127L60.989 49.3V14.448L42.9 22.705l-17.8-8.127z" fill="#36384b"/><path fill="#36384b" d="M42.401 22.155h1v35.948h-1zm-17.802-8.127h1v35.948h-1zm35.256 48.214h.583v1.166h-.583zm0 2.915h.583v1.166h-.583zm1.166-1.166h1.166v.583h-1.166zm-2.915 0h1.166v.583h-1.166M9.896 9.47h.583v1.166h-.583zm0 2.915h.583v1.166h-.583zm1.166-1.166h1.166v.583h-1.166zm-2.915 0h1.166v.583H8.147"/><circle cx="64.29" cy="57.295" r=".583" fill="#a9ffd6"/><path d="M9.975 29.82c-.355-.7-.694-1.438-1.033-2.2l.914-.406c.332.745.665 1.466 1.011 2.156zm4.147 5.667a15.066 15.066 0 0 1-3.017-3.624l.852-.525a14.129 14.129 0 0 0 2.815 3.39zM50.714 46.51a18.181 18.181 0 0 1-2.546-.174l.141-.99a18.775 18.775 0 0 0 4.45.062l.095 1c-.736.067-1.454.102-2.14.102zm4.451-.431l-.182-.984c.192-.035.383-.072.576-.11a7.229 7.229 0 0 0 2.779-2.258l.8.6a8.2 8.2 0 0 1-3.219 2.592l-.106.034c-.213.047-.434.086-.648.126zm-9.31-.258a12.736 12.736 0 0 1-4.19-2.208l.623-.781a11.768 11.768 0 0 0 3.864 2.034zm-5.9-3.847c-.088-.1-.173-.2-.259-.3a11.058 11.058 0 0 0-3.365-2.013l.358-.933a12 12 0 0 1 3.723 2.252c.132.149.211.242.291.333zm20.389-.72l-.914-.406a17 17 0 0 0 1.183-4.275l.989.155a17.855 17.855 0 0 1-1.261 4.526zm-26.131-2.2a20.4 20.4 0 0 0-3.994-.346h-.46l-.012-1h.472a21.361 21.361 0 0 1 4.189.365zm-8.813-.193c-.893 0-1.755-.035-2.559-.1l.086-1a32.5 32.5 0 0 0 4.484.046l.119.993a38.29 38.29 0 0 1-2.13.061zm-4.88-.428a14.7 14.7 0 0 1-4.445-1.581l.49-.872a13.739 13.739 0 0 0 4.149 1.472zm41.349-4.064l-1-.078c.059-.741.1-1.541.116-2.376l1 .023a39.131 39.131 0 0 1-.116 2.431z" fill="#36384b"/><path d="M34 5.25a14.082 14.082 0 0 0-12.938 19.625c1.243 2.895 4.5 6.974 6.064 9.843L33.152 45.8c.469.86 1.228.86 1.7 0l6.026-11.08c1.561-2.869 4.821-6.948 6.064-9.843A14.082 14.082 0 0 0 34 5.25z" fill="#a2acff"/><path d="M34 46.943a1.523 1.523 0 0 1-1.287-.906l-6.026-11.08c-.645-1.185-1.579-2.572-2.568-4.04a40.787 40.787 0 0 1-3.519-5.845 14.574 14.574 0 1 1 26.792 0 40.623 40.623 0 0 1-3.516 5.846c-.988 1.468-1.922 2.854-2.567 4.039l-6.026 11.08a1.522 1.522 0 0 1-1.283.906zM34 5.75a13.585 13.585 0 0 0-12.479 18.928 40.572 40.572 0 0 0 3.427 5.68c1 1.489 1.95 2.895 2.617 4.121l6.027 11.08c.254.466.562.466.816 0l6.027-11.08c.667-1.226 1.614-2.631 2.616-4.12a40.233 40.233 0 0 0 3.427-5.681A13.583 13.583 0 0 0 34 5.75z" fill="#36384b"/><path d="M42.618 18.744l.963-2.841-2.4.633a1.019 1.019 0 0 1-1.255-.486l-.25-.75-1.913 1.931c-.4.406-.669.275-.592-.292l.644-4.758-.931.41a1.077 1.077 0 0 1-1.384-.524L34 8.972l-1.5 3.1a1.078 1.078 0 0 1-1.385.524l-.931-.41.644 4.759c.076.566-.19.7-.592.291L28.321 15.3l-.25.75a1.019 1.019 0 0 1-1.255.486l-2.4-.633.963 2.84a1.064 1.064 0 0 1-.315 1.293l-.648.308 4.091 3.531a1.688 1.688 0 0 1 .549 1.545l-.237.867 4.147-.483c.232-.027.524-.043.827-.048l-.41 4.637h1.228l-.41-4.637c.3 0 .595.021.827.048l4.147.483-.237-.867a1.687 1.687 0 0 1 .549-1.545l4.091-3.531-.648-.308a1.063 1.063 0 0 1-.312-1.292z" fill="#fff"/></g></svg>