<svg xmlns="http://www.w3.org/2000/svg" viewBox="0 0 72 72"><g data-name="Layer 1"><circle cx="36.5" cy="36.667" r="25.75" fill="#36384b"/><path d="M60.11 29.871a24.833 24.833 0 0 1 .89 6.55 24.5 24.5 0 0 1-43.68 15.24.5.5 0 0 0 .12-.02.581.581 0 0 0 .4-.72 7.759 7.759 0 0 1 .42-4.66 3.7 3.7 0 0 0-.81-4.02 10.3 10.3 0 0 0-2.7-2.05c-.78-.43-.85-2.66-.9-4.28-.02-.5-.03-.97-.06-1.41a3.241 3.241 0 0 0-1.36-2.61 24.357 24.357 0 0 1 2.14-6.4c.01 0 .01 0 .01.01a.621.621 0 0 0 .36.12.564.564 0 0 0 .46-.23c1.06-1.35 2.91-3.36 3.71-3.57 2.34-.61 4.69-1.37 5.49-3.23A5.079 5.079 0 0 0 24.61 15a24.336 24.336 0 0 1 8.64-2.86c-.01.16-.06.88-.52.93a8.593 8.593 0 0 0-4.72 2.43l-.26.23a1.239 1.239 0 0 0-.44 1.65 1.723 1.723 0 0 0 1.52.74 2.25 2.25 0 0 0 .76-.13 18.012 18.012 0 0 0 3.98-1.92 11.894 11.894 0 0 1 3.65-.91 7.3 7.3 0 0 0 2.35-.57c.67-.44 1.89-1.31 1.94-1.34a.584.584 0 0 0 .16-.78c.38.08.75.17 1.12.27a3.214 3.214 0 0 0-.52 2.78 2.221 2.221 0 0 1-.04 1.81c-.04.05-.05.05-.08.05a12.086 12.086 0 0 0-3.24.24c-1.83.36-2.81.91-2.99 1.68a4.526 4.526 0 0 0-.08 1.25c.02.82 0 1.17-.68 1.46-1.52.65-4.85 2.88-5.33 3.83a1.165 1.165 0 0 0-.01 1.27c.43.62 1.4.62 2.95.48l.09.93A10.109 10.109 0 0 0 28 30.211c-2.1 1.57-3.01 5.72-2.83 7.99.09 1.2.45 1.96 1.06 2.28.17.09.36.2.57.31 1.85 1.01 4.94 2.69 7.41 2.04a1.457 1.457 0 0 1 1.46.23 2.643 2.643 0 0 1 .56 2.12c-.19.87.45 2.03 1.01 3.06a7.717 7.717 0 0 1 .46.91 4.337 4.337 0 0 1-.15.71c-.24.97-.61 2.44.1 3.48a8.48 8.48 0 0 1 .42.74c.57 1.05 1.34 2.5 2.69 2.77a3.27 3.27 0 0 0 .44.04 3.433 3.433 0 0 0 2.12-.91 17.542 17.542 0 0 0 3.71-4.07 4.555 4.555 0 0 1 .45-.61c.56-.48.67-1.67.79-3.58.02-.42.05-.81.08-1.18.07-.78 1.04-2.03 1.98-3.23a18.507 18.507 0 0 0 1.96-2.86c.27-.54.48-1.1.17-1.54-.33-.45-.9-.36-1.41-.29-.46.06-.99.14-1.24-.11a15.032 15.032 0 0 1-1.77-2.87 15.165 15.165 0 0 1-.96-2.22 11.118 11.118 0 0 1 1.13 1.06c.82.83 1.59 1.62 2.59 1.61a2.257 2.257 0 0 0 1.65-.84c1.38-1.45 1.91-2.64 1.56-3.52-.17-.45-.65-1-1.94-1.1a4.693 4.693 0 0 1-.49-.05 4.639 4.639 0 0 1 .45-.12c.86-.16 2.98-.37 4.07 1.24.09.13.19.27.28.41 1.03 1.53 1.73 2.52 2.47 2.52a.857.857 0 0 0 .27-.05c.71-.23.76-1.2.72-2.13a5.6 5.6 0 0 1 .27-2.58zM51.24 51.9a9.27 9.27 0 0 0 1.1-4.3c-.2-.81-.69-.94-.96-.94-.57 0-1.12.54-1.78 1.73a12.816 12.816 0 0 0-1.06 2.53 1.76 1.76 0 0 0 .16 1.6 1.092 1.092 0 0 0 .91.44 2 2 0 0 0 1.63-1.06z" fill="#fff"/><path d="M59.73 28.641a1.26 1.26 0 0 0-.37.26c-.55.58-.77 1.75-.69 3.61a5.378 5.378 0 0 1-.01.73 18.843 18.843 0 0 1-1.3-1.78c-.1-.15-.2-.29-.29-.42-1.49-2.18-4.17-1.94-5.26-1.73-1.17.22-1.84.74-1.8 1.39s.7 1.02 1.98 1.11c.51.03.86.16.93.34.09.24-.08.99-1.32 2.3a1.22 1.22 0 0 1-.81.47c-.5 0-1.1-.61-1.74-1.26a8.494 8.494 0 0 0-1.8-1.54.991.991 0 0 0-1.07-.1l-2.54-.78a2.118 2.118 0 0 0 1.76-.95 2.412 2.412 0 0 0-.34-2.59c-1.01-1.44-3.58-1.54-6.55-1.64l-.43-.02a29.312 29.312 0 0 0-4.35.26 13.046 13.046 0 0 1-2.89.15.3.3 0 0 1 .04-.08 17.448 17.448 0 0 1 4.74-3.28 2.282 2.282 0 0 0 1.39-2.57 3.667 3.667 0 0 1 .05-.95c.04-.11.53-.51 2.14-.81a11.059 11.059 0 0 1 2.77-.22 1.238 1.238 0 0 0 1.19-.49 3.313 3.313 0 0 0 .18-2.99c-.25-.59.37-1.62.6-1.94.01-.01.01-.03.02-.04a24.55 24.55 0 0 1 15.77 15.56z" fill="#a2acff"/><path d="M51.32 39.761c-.02.05-.04.1-.07.16a17.985 17.985 0 0 1-1.85 2.67c-1.09 1.4-2.11 2.72-2.22 3.84-.03.39-.06.81-.08 1.22a9.969 9.969 0 0 1-.39 2.77 4.35 4.35 0 0 0-.65.83 16.647 16.647 0 0 1-3.48 3.82 2.085 2.085 0 0 1-1.59.63c-.81-.17-1.43-1.33-1.88-2.17-.17-.32-.33-.62-.49-.86-.41-.6-.12-1.76.07-2.53a3.685 3.685 0 0 0 .18-1.13 4.486 4.486 0 0 0-.6-1.34 5.549 5.549 0 0 1-.89-2.25 3.746 3.746 0 0 0-.9-3.21 2.59 2.59 0 0 0-2.57-.52c-2.02.54-4.96-1.07-6.55-1.93-.21-.12-.41-.22-.59-.32-.12-.06-.36-.42-.43-1.33-.22-2.76 1.09-6.01 2.36-6.96 2.38-1.77 6.54-1.76 7.49-1.2 2.62 1.52 3.28 1.5 4.32 1.31a5.178 5.178 0 0 1 1.85-.05 5.63 5.63 0 0 0 1.28.03l2.54.78a.88.88 0 0 0-.22.19c-.18.24-.57.75.91 3.71a17.207 17.207 0 0 0 2.11 3.42 2.519 2.519 0 0 0 2.24.44c.03-.01.07-.01.1-.02zm-.12 8.3a9.933 9.933 0 0 1-.97 3.24.953.953 0 0 1-.61.49 1.083 1.083 0 0 1 .05-.56 11 11 0 0 1 1.53-3.17z" fill="#a2acff"/><path d="M44.1 28.371a1.376 1.376 0 0 1 .3 1.32c-.21.35-.92.48-1.89.36a6.187 6.187 0 0 0-2.21.05c-.72.13-1.15.21-3.52-1.17a7.506 7.506 0 0 0-3.92-.41l-.09-.93c.34-.04.7-.08 1.09-.12a30.174 30.174 0 0 1 4.18-.26l.42.02c2.55.09 4.96.18 5.64 1.14z" fill="#fff"/><path d="M40.81 12.311c-.12.08-1.27.89-1.89 1.3a11.432 11.432 0 0 1-1.88.39 11.661 11.661 0 0 0-4.12 1.1 17.1 17.1 0 0 1-3.73 1.78.965.965 0 0 1-.85-.06.964.964 0 0 1 .17-.2c.09-.07.18-.15.27-.23a7.4 7.4 0 0 1 4.09-2.15c1.25-.14 1.56-1.47 1.55-2.15 0-.02-.01-.05-.01-.07.69-.06 1.38-.1 2.09-.1a24.5 24.5 0 0 1 4.31.39zM23.58 15.6a3.831 3.831 0 0 1-.06 2.53c-.53 1.24-2.2 1.9-4.71 2.56a7.014 7.014 0 0 0-2.54 1.91 24.766 24.766 0 0 1 7.31-7zm-9.4 25.621c2.67 1.48 3.65 2.99 3 4.6a9.078 9.078 0 0 0-.58 4.88 24.383 24.383 0 0 1-4.6-14.28 25.121 25.121 0 0 1 .21-3.15 2.589 2.589 0 0 1 .41 1.31c.02.41.04.88.05 1.36.07 2.23.15 4.52 1.51 5.28z" fill="#a2acff"/><path d="M31.36 66.414A30.029 30.029 0 0 1 6.579 31.863l.986.166a29.031 29.031 0 0 0 23.959 33.4zM65.5 36.241A29.053 29.053 0 0 0 41.143 8.2l.164-.986A30.053 30.053 0 0 1 66.5 36.223zM13.411 18.064l-.769-.637a30.848 30.848 0 0 1 17.53-10.515l.2.98a29.847 29.847 0 0 0-16.961 10.172z" fill="#36384b"/><circle cx="5.932" cy="18.981" r=".583" fill="#a9ffd6"/><path fill="#36384b" d="M8.965 21.556h.583v1.166h-.583zm0 2.915h.583v1.166h-.583zm1.166-1.166h1.166v.583h-1.166zm-2.915 0h1.166v.583H7.216"/><circle cx="35.384" cy="6.236" r="1.166" fill="#a9ffd6"/><path d="M64.051 36.568s-12.741 5.878-16.14 11.541c-4.151 6.908-1.658 14.26-1.488 14.773.771.095 10.935 1.61 14.882-6.181 3.858-7.617 2.746-20.133 2.746-20.133z" fill="#a9ffd6"/><path d="M64.556 36.522a.507.507 0 0 0-.717-.415c-.527.243-12.923 6.01-16.362 11.741-3.937 6.552-2.077 13.488-1.562 15.11a.515.515 0 0 0 .109.241.5.5 0 0 0 .4.2h.009a21.629 21.629 0 0 0 2.718.169c3.806 0 9.748-.988 12.608-6.633 3.877-7.664 2.841-19.895 2.797-20.413zm-3.7 19.95c-2.919 5.763-9.439 6.232-12.841 6.047 2.262-1.692 5.737-5.241 9.866-16.073a.507.507 0 1 0-.947-.361c-4.469 11.725-8.081 14.662-10.192 16.1a17.881 17.881 0 0 1 1.604-13.815c2.839-4.732 12.6-9.73 15.251-11.023.159 2.774.474 12.772-2.744 19.125z" fill="#36384b"/><path d="M24.662 51.5s11.115-1.068 15.722 1.464a14.794 14.794 0 0 1 6.945 9.566c-.493.374-6.876 5.489-12.714 1.712-5.707-3.697-9.953-12.742-9.953-12.742z" fill="#a9ffd6"/><path d="M47.8 62.345a15.26 15.26 0 0 0-7.177-9.824C35.936 49.944 25.074 50.953 24.614 51a.5.5 0 0 0-.405.71c.177.375 4.374 9.222 10.135 12.95a8.908 8.908 0 0 0 4.93 1.465c3.761 0 7.06-2.208 8.317-3.167a.5.5 0 0 0 .1-.08.493.493 0 0 0 .109-.533zm-12.913 1.472c-4.642-3-8.359-9.757-9.448-11.883 2.53-.179 10.954-.6 14.7 1.464a14.163 14.163 0 0 1 6.618 8.892c-3.956.152-7.536-1.277-12.232-4.918a.5.5 0 1 0-.613.79c4.327 3.355 7.76 4.9 11.415 5.106-2.417 1.426-6.578 3.049-10.44.549zm26.594-.735h.583v1.166h-.583zm0 2.916h.583v1.166h-.583zm1.166-1.167h1.166v.583h-1.166zm-2.915 0h1.166v.584h-1.166" fill="#36384b"/></g></svg>