<svg xmlns="http://www.w3.org/2000/svg" viewBox="0 0 72 72"><g data-name="Layer 1"><ellipse cx="31.762" cy="50.774" rx="26.195" ry="18.351" fill="#a9ffd6"/><circle cx="31.834" cy="59.145" r="3.575" fill="#a2acff"/><circle cx="61.214" cy="26.626" r="3.575" fill="#a2acff"/><circle cx="17.843" cy="15.969" r="3.575" fill="#a2acff"/><path d="M63.658 49.683c1.4-2.317.416-5.29-.66-7.377a33.371 33.371 0 0 0-6.225-7.979l-.6-.594.6-.6c.7-.71 1.368-1.438 2-2.165l.306-.354.508.072a4.648 4.648 0 0 0 1.627.314A4.369 4.369 0 0 0 64 23.257l-.317-.264.009-.46a5.766 5.766 0 0 0-.5-4.405c-1.963-3.2-7.628-3.681-15.545-1.315l-.838.251-.225-.843c-2.122-7.987-5.49-12.567-9.248-12.567S30.22 8.223 28.1 16.188l-.225.834-.828-.238a39 39 0 0 0-4.429-1.01l-.448-.074-.209-.457a4.42 4.42 0 0 0-4.3-3.556 4.376 4.376 0 0 0-4.371 4.371l.02.551-.268.295a5.005 5.005 0 0 0-1.242 1.355c-2.02 3.333.348 8.789 6.5 14.97l.6.6-.6.594a33.372 33.372 0 0 0-6.181 8.009c-1.927 3.79-1.4 6.1-.62 7.379 1.937 3.158 7.748 3.649 15.544 1.316l.837-.251.226.843c.3 1.143.643 2.251 1.015 3.293l.15.42-.286.4a4.474 4.474 0 0 0-1.51 3.309 4.376 4.376 0 0 0 4.371 4.372 4.325 4.325 0 0 0 1.686-.339l.345-.145.386.176a5.277 5.277 0 0 0 3.085 1.081c3.792 0 7.179-4.645 9.292-12.743l.225-.851.839.255c8.025 2.446 13.996 1.97 15.954-1.264zm.67-23.058a3.114 3.114 0 1 1-3.114-3.114 3.118 3.118 0 0 1 3.114 3.114zm-16.5-8.556c7.312-2.21 12.651-1.943 14.28.717a4.137 4.137 0 0 1 .478 2.759l-.106.815-.818-.082a4.307 4.307 0 0 0-3.37 1.1 4.384 4.384 0 0 0-1.454 3.25 4.336 4.336 0 0 0 .87 2.616l.418.547-.461.52a45.215 45.215 0 0 1-1.852 1.994l-.563.573-.6-.535a70.425 70.425 0 0 0-5.908-4.7l-.256-.181-.088-.349a68.661 68.661 0 0 0-1.151-8.06l-.159-.758zm.793 12.758l-.066-1.8 1.426 1.093a65.797 65.797 0 0 1 3.656 3l.708.626-.7.635a65.869 65.869 0 0 1-3.641 3.069l-1.428 1.116.06-1.811c.031-.914.047-1.851.047-2.786a75.805 75.805 0 0 0-.057-3.142zm-1.2 3.144c0 1.731-.055 3.462-.161 5.143l-.021.324-.266.262a82.634 82.634 0 0 1-4.37 2.876 80.895 80.895 0 0 1-4.66 2.65l-.313.165-.385-.122a81.576 81.576 0 0 1-9.503-5.775l-.266-.187-.09-.451c-.1-1.628-.15-3.272-.15-4.885 0-1.715.055-3.445.161-5.143l.023-.325.263-.261a82.431 82.431 0 0 1 9.424-5.729l.312-.161.381.117a80.707 80.707 0 0 1 9.074 5.406l.27.187.087.365c.135 1.853.198 3.712.198 5.544zM46.09 19.656c.325 1.615.595 3.309.8 5.037l.213 1.791-1.513-.984c-.616-.4-1.282-.816-1.978-1.238a84.87 84.87 0 0 0-3.228-1.858L38.9 21.6l1.54-.7c1.544-.7 3.07-1.332 4.533-1.867l.926-.341zm-16.81-3.008C31.218 9.3 34.229 4.911 37.336 4.911s6.136 4.412 8.074 11.8l.2.751-.732.262a67 67 0 0 0-7 3l-.3.147-.366-.108a67.6 67.6 0 0 0-7.387-3.1l-.739-.257zm-.68 2.937l.191-.953.919.324a63.221 63.221 0 0 1 4.854 1.954l1.542.7-1.481.817a86.195 86.195 0 0 0-3.219 1.873 76.55 76.55 0 0 0-2.351 1.5l-1.511 1 .205-1.8c.214-1.879.5-3.7.851-5.415zm-10.938-6.642a3.115 3.115 0 1 1-3.115 3.115 3.118 3.118 0 0 1 3.115-3.115zm-4.791 5.97l.616-1.209.8 1.135a4.328 4.328 0 0 0 3.372 1.59 4.394 4.394 0 0 0 4.09-2.832l.251-.655.685.12a38.142 38.142 0 0 1 4.151.971l.757.219-.165.769a67.206 67.206 0 0 0-1.177 8.338l-.025.308-.25.254a70.057 70.057 0 0 0-5.574 4.505l-.6.537-.568-.569c-5.563-5.603-8.002-10.768-6.363-13.481zM26.028 36.5l.053 1.814-1.424-1.125a62.943 62.943 0 0 1-3.241-2.725l-.7-.633.707-.628a66.778 66.778 0 0 1 3.247-2.712l1.43-1.12-.06 1.813a80.379 80.379 0 0 0-.049 2.787c-.005.796.009 1.623.037 2.529zm.814 13.375a30.725 30.725 0 0 1-8.531 1.487c-2.881 0-4.87-.762-5.752-2.2-1.7-2.779.853-8.1 6.672-13.9l.569-.562.6.54a68.663 68.663 0 0 0 5.49 4.46l.247.181.086.344a69.121 69.121 0 0 0 1.2 8.662l.159.758zm1.743-1.589a63.54 63.54 0 0 1-.866-5.595l-.205-1.8 1.512 1a88.389 88.389 0 0 0 2.82 1.787 81.643 81.643 0 0 0 2.876 1.665l1.462.807-1.515.7a64.597 64.597 0 0 1-4.964 2.065l-.927.341zm3.249 13.974a3.114 3.114 0 1 1 3.114-3.114 3.118 3.118 0 0 1-3.114 3.113zm13.627-11.223c-1.934 7.511-4.972 12-8.125 12a3.568 3.568 0 0 1-1.441-.319l-.9-.4.527-.831a4.369 4.369 0 0 0-4.4-6.653l-.709.116-.231-.677c-.33-.957-.638-1.98-.915-3.043l-.192-.75.725-.261a67.523 67.523 0 0 0 7.394-3.189l.3-.151.37.111a68.868 68.868 0 0 0 7.068 3.04l.721.262zm.668-2.946l-.2.972-.929-.344a65.11 65.11 0 0 1-4.542-1.883l-1.513-.694 1.449-.813a82.287 82.287 0 0 0 5.22-3.181l1.512-1-.205 1.8a63.218 63.218 0 0 1-.792 5.143zm10.936 3.162h-.347a31.442 31.442 0 0 1-8.852-1.568l-.737-.229.159-.753a68.466 68.466 0 0 0 1.132-8.123l.025-.308.25-.254a70.062 70.062 0 0 0 5.976-4.872l.594-.541.573.562c5.85 5.764 8.435 11.076 6.744 13.862-1.067 1.764-3.59 2.183-5.517 2.224z" fill="#36384b"/><path fill="#36384b" d="M63.417 33.569H64v1.166h-.583zm0 2.916H64v1.166h-.583zm1.166-1.166h1.166v.583h-1.166zm-2.915 0h1.166v.583h-1.166M21.905 53.747h.583v1.166h-.583zm0 2.916h.583v1.166h-.583zm1.166-1.166h1.166v.583h-1.166zm-2.915 0h1.166v.583h-1.166"/><circle cx="6.733" cy="32.271" r="1.166" fill="#a9ffd6"/><path fill="#36384b" d="M24.238 7.097h.583v1.166h-.583zm0 2.915h.583v1.166h-.583zm1.166-1.166h1.166v.583h-1.166zm-2.915 0h1.166v.583h-1.166"/></g></svg>