<svg xmlns="http://www.w3.org/2000/svg" viewBox="0 0 72 72"><g data-name="Layer 1"><path fill="#a3acff" d="M18.818 49.615h32.043l2.623-1.917v-16.46l-2.915-2.661.292-5.379-2.627-2.5-27.25.667-1.666 2.916v4.605l-2.167 2.352v16.627l1.667 1.75z"/><rect x="23.573" y="36.769" width="23.293" height="5.965" rx="2.983" fill="#fff"/><path d="M51.842 28.705l-.233-.095v-4.464a3.439 3.439 0 0 0-3.435-3.436H22.261a3.439 3.439 0 0 0-3.435 3.436v4.459l-.235.095a3.424 3.424 0 0 0-2.155 3.186v15a3.424 3.424 0 0 0 3.084 3.418c.115.011.233.017.35.017h.97v1.429h3.06v-1.426h22.617v1.429h3.06v-1.429h.971a3.458 3.458 0 0 0 2.992-1.749l.085-.165a3.413 3.413 0 0 0 .2-.5 3.7 3.7 0 0 0 .155-1.021v-15a3.426 3.426 0 0 0-2.138-3.184zm-31.861-4.559a2.283 2.283 0 0 1 2.28-2.281h25.913a2.283 2.283 0 0 1 2.28 2.281v4.3h-1.335a3.439 3.439 0 0 0-3.436 3.436v4.168l-.493-.162a3.376 3.376 0 0 0-1.072-.175H26.3a3.416 3.416 0 0 0-1.074.175l-.492.161v-4.163A3.439 3.439 0 0 0 21.3 28.45h-1.319zm26.417 15v.954a2.283 2.283 0 0 1-2.28 2.28H26.3a2.283 2.283 0 0 1-2.28-2.28v-.954a2.283 2.283 0 0 1 2.28-2.28h17.818a2.283 2.283 0 0 1 2.282 2.282zm6.43 7.741a2.261 2.261 0 0 1-.026.32 2.458 2.458 0 0 1-.076.357 2.3 2.3 0 0 1-.13.318l-.047.1a2.28 2.28 0 0 1-2 1.189H19.87c-.077 0-.154 0-.23-.012a2.271 2.271 0 0 1-2.049-2.268v-15a2.282 2.282 0 0 1 2.279-2.281h1.43a2.283 2.283 0 0 1 2.281 2.281v5.17l-.071.1a3.4 3.4 0 0 0-.644 1.994v.945a3.439 3.439 0 0 0 3.434 3.437h17.818a3.439 3.439 0 0 0 3.435-3.437v-.954a3.411 3.411 0 0 0-.644-1.994l-.071-.1v-5.17a2.283 2.283 0 0 1 2.281-2.281h1.429a2.283 2.283 0 0 1 2.28 2.281z" fill="#36384b"/><rect x="16.945" y="28.886" width="7.244" height="6.471" rx="3.235" fill="#fff"/><path d="M20.954 35.856h-.774a3.735 3.735 0 0 1 0-7.47h.774a3.735 3.735 0 0 1 0 7.47zm-.774-6.47a2.735 2.735 0 0 0 0 5.47h.774a2.735 2.735 0 0 0 0-5.47z" fill="#36384b"/><rect x="46.24" y="28.886" width="7.244" height="6.471" rx="3.235" fill="#fff"/><path d="M50.249 35.856h-.774a3.735 3.735 0 1 1 0-7.47h.774a3.735 3.735 0 0 1 0 7.47zm-.774-6.47a2.735 2.735 0 1 0 0 5.47h.774a2.735 2.735 0 0 0 0-5.47zm10.854-2.541A27.066 27.066 0 0 0 48.68 13.156l.5-.865a28.075 28.075 0 0 1 12.08 14.2zm2.307 9.693h-1a26.449 26.449 0 0 1-20.928 25.78l-.437-2.2-2.933 3.485 4 1.865L40.9 63.3a27.449 27.449 0 0 0 21.736-26.762zm-2.049-4.724l.008-.583 1.166.015-.008.583zm-2.915-.038l.008-.583 1.166.015-.008.583zm1.727 1.771l.015-1.166.583.008-.015 1.166zm.038-2.915l.015-1.166.583.008-.015 1.166zM37.954 9.53l-3.429-2.775L34.418 9A27.5 27.5 0 0 0 7.7 36.368v.17A27.387 27.387 0 0 0 11.95 51.1l.806-.594A26.391 26.391 0 0 1 8.7 36.536v-.166A26.5 26.5 0 0 1 34.37 10l-.1 2.2zm-20.47 47.951a27.32 27.32 0 0 0 12.706 5.993l.18-.985a26.312 26.312 0 0 1-12.192-5.734zm11.731-2.709l.008-.583 1.166.016-.008.582zm-2.915-.037l.008-.583 1.166.015-.008.583zm1.726 1.771l.015-1.166.583.007-.015 1.166zm.039-2.916l.015-1.165.583.007-.015 1.166z" fill="#36384b"/><path d="M4.326 39.938c-2.164-12.909 6.092-27.07 18.405-31.569l.343.94C11.191 13.65 3.224 27.315 5.312 39.771zM45.7 64.6l-.2-.981c10.643-2.163 16.421-11.512 18.135-18.86l.973.226C62.831 52.621 56.81 62.34 45.7 64.6z" fill="#36384b"/><circle cx="57.328" cy="36.441" r=".583" fill="#a9ffd6"/><circle cx="65.808" cy="30.63" r="1.166" fill="#a9ffd6"/></g></svg>