<svg xmlns="http://www.w3.org/2000/svg" viewBox="0 0 72 72"><g data-name="Layer 1"><ellipse cx="32.354" cy="49.016" rx="26.195" ry="18.351" fill="#a9ffd6"/><path fill="#fff" d="M22.992 17.896h30.057v38.936H22.992z"/><path fill="#36384b" d="M39.208 48.505h10.52v1.02h-10.52zm0-2.85h10.52v1.02h-10.52zm0-2.85h10.52v1.02h-10.52zm0-2.85h10.52v1.02h-10.52zm0-2.85h10.52v1.02h-10.52zm5.68-13.6a4.835 4.835 0 1 1-4.84 4.84.037.037 0 0 0 .01-.03h4.73v-4.81z"/><path d="M44 22.815v4.89h-4.78a.09.09 0 0 0-.01-.05 4.853 4.853 0 0 1 4.79-4.84z" fill="#a9ffd6"/><path fill="#36384b" d="M36.798 49.035v.49h-10.52v-10.52h.49v10.03h10.03zm-10.52-14.82h10.52v1.02h-10.52zm0-2.85h10.52v1.02h-10.52zm0-2.85h10.52v1.02h-10.52zm0-2.85h10.52v1.03h-10.52zm0-2.85h10.52v1.03h-10.52z"/><path fill="#a9ffd6" d="M33.258 39.945h1.91v8.25h-1.91zm-2.81 1.9h1.91v6.35h-1.91zm-2.81 1.91h1.91v4.44h-1.91z"/><path d="M21.551 60.608a2.45 2.45 0 0 1-2.446-2.446V14.183a2.449 2.449 0 0 1 2.446-2.446h32.905a2.448 2.448 0 0 1 2.444 2.446v43.979a2.449 2.449 0 0 1-2.445 2.446zm31.254-4.276V18.691H23.2v37.641z" fill="#a2acff"/><path d="M54.455 12.237a1.946 1.946 0 0 1 1.945 1.946v43.979a1.946 1.946 0 0 1-1.946 1.946h-32.9a1.946 1.946 0 0 1-1.946-1.946V14.183a1.946 1.946 0 0 1 1.946-1.946h32.9M22.7 56.832h30.6V18.191H22.7v38.641m31.755-45.595h-32.9a2.949 2.949 0 0 0-2.946 2.946v43.979a2.95 2.95 0 0 0 2.946 2.946h32.9a2.949 2.949 0 0 0 2.945-2.946V14.183a2.949 2.949 0 0 0-2.946-2.946zM23.7 19.191h28.6v36.641H23.7V19.191z" fill="#36384b"/><path d="M27.568 12.737V8.578h1.746c1.531-2.23 4.864-3.657 8.6-3.657s7.067 1.427 8.6 3.657h1.554v4.159zM37.753 6.99a1.46 1.46 0 1 0 1.459 1.46 1.462 1.462 0 0 0-1.459-1.46z" fill="#a9ffd6"/><path d="M37.912 5.421c3.784 0 7.013 1.516 8.326 3.656h1.325v3.16H28.068v-3.16h1.518c1.313-2.14 4.542-3.656 8.326-3.656m-.16 4.989a1.96 1.96 0 1 0-1.96-1.96 1.961 1.961 0 0 0 1.96 1.96m.16-5.989c-3.774 0-7.169 1.419-8.853 3.656h-1.991v5.16h21.5v-5.16h-1.8c-1.684-2.237-5.079-3.656-8.853-3.656zm-.16 4.989a.96.96 0 1 1 .96-.96.962.962 0 0 1-.96.96z" fill="#36384b"/><circle cx="53.305" cy="55.768" r="7.663" fill="#a2acff"/><path d="M53.305 48.605a7.163 7.163 0 1 1-7.163 7.163 7.163 7.163 0 0 1 7.163-7.163m0-1a8.163 8.163 0 1 0 8.163 8.163 8.172 8.172 0 0 0-8.163-8.163z" fill="#36384b"/><path d="M56.264 52.714L52 57.1l-1.88-1.943a1.039 1.039 0 0 0-1.494 1.443l2.621 2.711a1.036 1.036 0 0 0 .745.317 1.037 1.037 0 0 0 .744-.314l5.015-5.151a1.039 1.039 0 0 0-1.489-1.45z" fill="#fff"/><path fill="#36384b" d="M20.37 3.38h.583v1.166h-.583zm0 2.916h.583v1.166h-.583zm1.166-1.166h1.166v.583h-1.166zm-2.915 0h1.166v.583h-1.166m45.752 32.191h.583v1.166h-.583zm0 2.916h.583v1.166h-.583zm1.166-1.166h1.166v.583h-1.166zm-2.916 0h1.167v.583h-1.167"/><circle cx="15.813" cy="9.947" r="1.166" fill="#a9ffd6"/><circle cx="61.992" cy="26.691" r=".583" fill="#a9ffd6"/></g></svg>