<svg xmlns="http://www.w3.org/2000/svg" viewBox="0 0 72 72"><g data-name="Layer 1"><ellipse cx="40.88" cy="23.618" rx="26.195" ry="18.351" fill="#a9ffd6"/><path d="M59.78 30.839c0-4.726-4.706-9.472-9.432-9.472s-9.371 4.807-9.371 9.532l-.221 6.375c2.433 8.128 2.792 5.6 4.156 7.149l-.034-9.743c0-2.068.615-3.05 2.682-3.05s2.788.821 2.788 2.889l-.014 7.923 2.83-.04a3.588 3.588 0 0 1 2.413 1.368l2.679-.725a8.937 8.937 0 0 0 1.524-5.61zm-9.07-2.9l-.8-.2v-2.692l.885.02zM6.991 6.606h27.273l-.326 21.237-6.102.758v6.079l-9.101-6.079-11.738-.482-.006-21.513z" fill="#a3acff"/><path d="M50.348 38.419c0 3.749-1.492 6.788-2.788 6.788s-2.346-3.039-2.346-6.788 0-6.595 2.346-6.789c2.699-.224 2.788 3.039 2.788 6.789z" fill="#fff"/><path fill="#36384b" d="M16.534 11.942h1.177v3.32h-1.177zm6.428 0h1.178v3.32h-1.178zm-2.625 11.891a10.3 10.3 0 0 0 9.355-6.086l-1.1-.426a9.057 9.057 0 0 1-16.517-.007l-1.1.426a10.3 10.3 0 0 0 9.362 6.093zm29.408.965h1.178v3.321h-1.178zm-36.426 7.5h1.178v2.249h-1.178zm3.803 23.675h2.732V54.8h-2.732a2.628 2.628 0 0 1-2.622-2.629V37.655h-1.181v14.516a3.806 3.806 0 0 0 3.803 3.802zm5.84-1.177h1.178v1.177h-1.178zm4.285 0h1.178v1.177h-1.178zm4.285 0h1.178v1.177h-1.178z"/><path d="M62.119 45.154h-1.61l-.114-.32a2.748 2.748 0 0 0-1.759-1.7 10.2 10.2 0 0 0 1.928-5.965v-6.425a10.234 10.234 0 0 0-9.641-10.2v-6.459H34.852V8.246a2.734 2.734 0 0 0-2.731-2.731H8.551A2.735 2.735 0 0 0 5.82 8.246v18.213a2.735 2.735 0 0 0 2.731 2.731h10.518l9.356 7.017V29.19h3.7a2.735 2.735 0 0 0 2.731-2.731v-11.2h14.889v5.281a10.235 10.235 0 0 0-9.641 10.2v6.428a11.721 11.721 0 0 0 4.285 8.461v4.946l-.725-.421a2.669 2.669 0 0 1-.719-.609l-2.556-3.035a3.8 3.8 0 0 0-5.847 4.863c3.341 4.384 4.839 6.71 6.042 8.579a38.435 38.435 0 0 0 5.252 6.738l.856-.81a37.047 37.047 0 0 1-5.117-6.564c-1.155-1.793-2.735-4.247-6.114-8.68a2.624 2.624 0 0 1 4.025-3.368l2.553 3.032a3.8 3.8 0 0 0 2.939 1.386h.588V34.494a2.09 2.09 0 0 1 4.18 0V47.4h1.178v-4.283h2.089a2.093 2.093 0 0 1 2.089 2.09v3.267h1.178v-3.267a2.879 2.879 0 0 0-.041-.406l-.08-.552.549-.06h1.125a1.556 1.556 0 0 1 1.555 1.554v3.8h1.176v-3.212h1.555a1.556 1.556 0 0 1 1.554 1.554v5.3a17.751 17.751 0 0 1-1.9 7.958l-2.554 5.044 1.052.531 2.551-5.045a18.9 18.9 0 0 0 2.025-8.488v-5.3a2.735 2.735 0 0 0-2.728-2.731zm-28.444-18.7a1.556 1.556 0 0 1-1.554 1.554h-4.874v5.839l-7.786-5.839H8.551A1.556 1.556 0 0 1 7 26.459V8.246a1.556 1.556 0 0 1 1.551-1.554h23.57a1.556 1.556 0 0 1 1.554 1.554zm21.756 16.558l-.139-.138a3.251 3.251 0 0 0-2.279-.934h-2.089v-7.446a3.268 3.268 0 0 0-6.535 0v9.488a9.029 9.029 0 0 1-3.108-6.81v-6.428a9.054 9.054 0 0 1 18.107 0v6.428a10.89 10.89 0 0 1-2.18 5.84zm3.244-25.556h.583v1.166h-.583zm0 2.915h.583v1.166h-.583zm1.166-1.166h1.166v.583h-1.166zm-2.915 0h1.166v.583h-1.166M6.53 41.578h.583v1.166H6.53zm0 2.915h.583v1.166H6.53zm1.166-1.166h1.166v.583H7.696zm-2.915 0h1.166v.583H4.781" fill="#36384b"/><circle cx="10.654" cy="46.685" r=".583" fill="#a9ffd6"/></g></svg>