<svg xmlns="http://www.w3.org/2000/svg" viewBox="0 0 72 72"><g data-name="Layer 1"><ellipse cx="40.147" cy="48.098" rx="26.195" ry="18.351" fill="#a9ffd6"/><path d="M10.581 22.071V45.1a.69.69 0 0 0 .337.591l20 11.863a.69.69 0 0 0 .688.006L52.08 45.928a.69.69 0 0 0 .348-.6V22.071a.69.69 0 0 0-.337-.592L31.854 9.5a.7.7 0 0 0-.35-.1.685.685 0 0 0-.349.1L10.918 21.479a.69.69 0 0 0-.337.592zm1.375.391L31.5 10.891l19.553 11.571V44.93l-.127.07-19.647 11.165-19.323-11.459z" fill="#36384b"/><circle cx="31.504" cy="10.459" r="4.962" transform="rotate(-76.794 31.504 10.458)" fill="#fff" stroke="#36384b" stroke-miterlimit="10" stroke-width="1.273"/><circle cx="11.269" cy="21.541" r="5.954" transform="rotate(-76.809 11.268 21.54)" fill="#a2acff" stroke="#36384b" stroke-miterlimit="10" stroke-width="1.273"/><circle cx="51.74" cy="21.541" r="3.124" transform="rotate(-80.821 51.74 21.54)" fill="#a2acff" stroke="#36384b" stroke-miterlimit="10" stroke-width="1.273"/><circle cx="51.74" cy="44.985" r="6.946" transform="rotate(-22.771 51.74 44.986)" fill="#a2acff" stroke="#36384b" stroke-miterlimit="10" stroke-width="1.273"/><circle cx="11.269" cy="44.985" r="4.962" transform="rotate(-76.794 11.269 44.985)" fill="#fff" stroke="#36384b" stroke-miterlimit="10" stroke-width="1.273"/><circle cx="31.147" cy="56.96" r="4.962" transform="rotate(-80.821 31.147 56.96)" fill="#a2acff" stroke="#36384b" stroke-miterlimit="10" stroke-width="1.273"/><path fill="#36384b" d="M47.935 10.027h.583v1.166h-.583zm0 2.915h.583v1.166h-.583zm1.166-1.166h1.166v.583h-1.166zm-2.915 0h1.166v.583h-1.166M28.028 40.525h.583v1.166h-.583zm0 2.916h.583v1.166h-.583zm1.166-1.166h1.166v.583h-1.166zm-2.915 0h1.166v.583h-1.166"/><circle cx="8.991" cy="7.972" r="1.166" fill="#a9ffd6"/><circle cx="14.129" cy="9.004" r=".583" fill="#a9ffd6"/></g></svg>