<svg xmlns="http://www.w3.org/2000/svg" viewBox="0 0 72 72"><g data-name="Layer 1"><ellipse cx="41.525" cy="28.724" rx="26.195" ry="18.351" fill="#a9ffd6"/><path d="M31.73 20.188c-3.151 0-5.979-.947-7.332-2.422a5.007 5.007 0 0 1 .515-.431c.513-.392 1.044-.8 1.038-1.379a3.121 3.121 0 0 1 1.28-2.307l.18-.15v-.017a4.05 4.05 0 0 0 1.182-2.318l-.008-.1-.064-.134c-.053-.1-.06-.148-.032-.2.042-.082.331-.5 2.027-.805.065.08.152.212.21.3.232.35.472.713.862.779l.089.016.089-.02c.387-.074.62-.441.845-.795.058-.091.144-.226.208-.308 1.693.272 1.995.689 2.038.771.03.056.024.1-.027.205l-.052.107-.017.164a4.135 4.135 0 0 0 1.4 2.408l.011.014a3.118 3.118 0 0 1 1.322 2.283c.006.583.543.978 1.064 1.36a4.639 4.639 0 0 1 .522.42c-1.338 1.516-4.176 2.517-7.285 2.56z" fill="#a2acff"/><path d="M33.049 10.448a4.32 4.32 0 0 1 1.246.386l-.036.075v.232a4.577 4.577 0 0 0 1.222 2.471v.043l.375.3a2.648 2.648 0 0 1 1.135 1.9c.008.833.707 1.346 1.268 1.758l.075.055a10.517 10.517 0 0 1-6.549 2.022h-.134a10.485 10.485 0 0 1-6.51-1.9l.073-.056c.554-.423 1.243-.949 1.235-1.782a2.647 2.647 0 0 1 1.1-1.918l.36-.3v-.046A4.6 4.6 0 0 0 29.1 11.2l-.033-.3-.005-.009a4.367 4.367 0 0 1 1.237-.408l.015.023a1.9 1.9 0 0 0 1.194 1l.178.03.178-.034a1.9 1.9 0 0 0 1.175-1.018l.015-.024m-.337-1.08c-.342 0-.687 1.06-1.045 1.128-.359-.061-.723-1.108-1.063-1.108h-.028c-3.442.583-2.486 1.727-2.486 1.8a3.8 3.8 0 0 1-1.184 2.056 3.533 3.533 0 0 0-1.46 2.7c.007.725-2.04 1.428-1.514 2.039 1.375 1.6 4.308 2.69 7.716 2.69h.145c3.442-.047 6.389-1.2 7.744-2.835.515-.62-1.545-1.285-1.552-2.01a3.528 3.528 0 0 0-1.51-2.668v-.002a3.807 3.807 0 0 1-1.222-2.034c0-.074.932-1.236-2.52-1.754h-.024z" fill="#36384b"/><path d="M31.741 61.49c-5.23-.017-9.813-2.3-12.259-6.12-1.507-2.353-2.435-5.738-2.836-10.349a5.375 5.375 0 0 1 .681-2.542 6.381 6.381 0 0 0 .77-2.921 5.858 5.858 0 0 0-.529-2.214 1.523 1.523 0 0 1-.2-.733c.359-4.611.742-8.111 2.462-11.179a20.194 20.194 0 0 1 2.77-3.843c.385-.417.775-.8 1.162-1.146C25.379 22.005 28.446 23 31.769 23s6.39-1 8.011-2.561c.387.345.777.729 1.162 1.146a20.193 20.193 0 0 1 2.767 3.843c1.719 3.063 2.1 6.566 2.455 11.179a1.509 1.509 0 0 1-.194.733 5.857 5.857 0 0 0-.529 2.213 6.385 6.385 0 0 0 .77 2.922 5.364 5.364 0 0 1 .681 2.542c-.4 4.61-1.328 8-2.836 10.349-2.445 3.815-7.028 6.1-12.259 6.12h-.056z" fill="#a2acff"/><path d="M56.017 43.47a1.047 1.047 0 0 1-.4-.751 19.455 19.455 0 0 1-1.917-2.054 19.136 19.136 0 0 0-1.658-1.79 1.013 1.013 0 0 1-.479-.411l-1.451-.087a32.7 32.7 0 0 0-3.482-.042 2.259 2.259 0 0 1-.482-.034c.232-.8.555-1.156.511-1.728-.3-3.928-.621-7.331-2-10.347l2.527-1.634a1.074 1.074 0 0 1 .845-.719c.631-.091 1.321.367 3.127 1.7.5.364 1.193.874 1.641 1.153a.911.911 0 0 1 .571-.2.98.98 0 0 1 .249.033 5.536 5.536 0 0 1 1.859 1.036 5.88 5.88 0 0 0 1.3.809l.014-.018a1.087 1.087 0 0 1-.063-.231 9.755 9.755 0 0 1-1.593-1.105 4.882 4.882 0 0 0-1.664-1.029 1.051 1.051 0 0 1-.689-.547 14.661 14.661 0 0 1-2.77-1.777 20.6 20.6 0 0 0-2.107-1.416 1.026 1.026 0 0 1-.552-.177l-1.353.515c-1.743.7-2.028.819-2.734 1.163q-.139-.21-.282-.416a1.282 1.282 0 0 0 .978-1l-.333-2.887a.465.465 0 0 1-.184-.5c.087-.27.5-.63 1.426-1.385a12.91 12.91 0 0 0 1.133-.992.406.406 0 0 1-.007-.495l.268-.308a14.438 14.438 0 0 0 1.255-1.587l-.005-.007c-.092-.141-.2-.3-.117-.468l-.016.015a.363.363 0 0 1-.457.01 21.649 21.649 0 0 0-1.773 1.869.488.488 0 0 1-.431.144 10.614 10.614 0 0 1-1.5 1.329 9.941 9.941 0 0 0-1.341 1.18.517.517 0 0 1-.315.267l-.111 1.17c-.066.888-.094 1.263-.106 1.588l-.046-.053a17.042 17.042 0 0 0-1.564-1.5c-1.376 1.628-4.516 2.747-7.976 2.754s-6.6-1.126-7.976-2.754a17.171 17.171 0 0 0-1.564 1.5l-.05.057c-.013-.309-.041-.693-.1-1.508l-.111-1.164a.518.518 0 0 1-.317-.271 10.1 10.1 0 0 0-1.34-1.177 10.54 10.54 0 0 1-1.5-1.329.5.5 0 0 1-.43-.143 21.537 21.537 0 0 0-1.775-1.878.366.366 0 0 1-.457-.009l-.016-.016c.08.17-.024.328-.117.47v.006a14.326 14.326 0 0 0 1.247 1.577l.278.32a.4.4 0 0 1-.01.5 14.018 14.018 0 0 0 1.135.989c.924.756 1.339 1.115 1.426 1.386a.464.464 0 0 1-.185.5l-.333 2.886a1.284 1.284 0 0 0 .924 1q-.138.2-.273.4c-.674-.327-.985-.453-2.694-1.144l-1.357-.514a1.1 1.1 0 0 1-.589.182c-.291.133-1.472.99-2.052 1.41a14.591 14.591 0 0 1-2.776 1.781 1.071 1.071 0 0 1-.685.546A4.889 4.889 0 0 0 8.4 27.131a9.525 9.525 0 0 1-1.6 1.109 1.009 1.009 0 0 1-.061.227l.016.02a5.862 5.862 0 0 0 1.3-.809 5.573 5.573 0 0 1 1.865-1.039.911.911 0 0 1 .836.181c.408-.273 1.078-.765 1.589-1.139 1.841-1.351 2.528-1.8 3.159-1.718a1.074 1.074 0 0 1 .846.717l2.5 1.609c-1.356 3-1.672 6.384-1.971 10.284-.044.572.279.93.511 1.725a2.757 2.757 0 0 1-.484.037 32.8 32.8 0 0 0-3.487.042l-1.449.087a1.11 1.11 0 0 1-.524.433 23.341 23.341 0 0 0-1.594 1.751 19.932 19.932 0 0 1-1.933 2.072 1.062 1.062 0 0 1-.4.752 29.876 29.876 0 0 0-2.569 2.255.945.945 0 0 1 .026.187c.028.014.054.027.079.042A22.066 22.066 0 0 0 7.137 44.4l.473-.384a.939.939 0 0 1 .934-.149c.329-.331.857-.933 1.225-1.35 1.275-1.452 1.8-2.01 2.322-2.159a1.063 1.063 0 0 1 1.066.308l3.993.6a1.157 1.157 0 0 1 .132 0c-.289.786-.7 1.559-.945 2.351-.329.081-.648.172-.8.216l-.382.107a32.654 32.654 0 0 0-3.325 1.031l-1.378.5a1.107 1.107 0 0 1-.381.565c-.138.152-.744 1.5-1.036 2.149a19.238 19.238 0 0 1-1.252 2.517 1.063 1.063 0 0 1-.168.831 29.458 29.458 0 0 0-1.823 2.9 1.179 1.179 0 0 1 .079.175l.086.015a21.942 21.942 0 0 0 1.563-2.1l.336-.49a.932.932 0 0 1 .853-.41c.221-.409.555-1.132.787-1.634.813-1.762 1.158-2.447 1.616-2.738a1.068 1.068 0 0 1 1.108-.009l3.969-.552a.846.846 0 0 0 .124-.08 21.839 21.839 0 0 0 2.753 9.025c2.892 4.512 8.051 6.335 12.677 6.35h.06c4.627-.015 9.786-1.838 12.678-6.35a21.936 21.936 0 0 0 2.762-9.1.837.837 0 0 0 .213.174l3.969.553a1.077 1.077 0 0 1 1.109.008c.457.292.8.976 1.6 2.712l.012.024c.231.5.565 1.223.8 1.64h.051a.923.923 0 0 1 .793.407l.345.5a21.944 21.944 0 0 0 1.554 2.084l.085-.017a1.013 1.013 0 0 1 .079-.176 29.719 29.719 0 0 0-1.821-2.891 1.055 1.055 0 0 1-.17-.834 19.411 19.411 0 0 1-1.248-2.51 19.208 19.208 0 0 0-1.082-2.192 1.024 1.024 0 0 1-.342-.529L51.818 45a33.06 33.06 0 0 0-3.326-1.03l-.378-.106c-.362-.1-.654-.179-.914-.24-.245-.791-.654-1.563-.943-2.348a1.513 1.513 0 0 1 .165 0l3.957-.606a1.077 1.077 0 0 1 1.067-.308c.52.15 1.046.707 2.309 2.145.368.419.9 1.025 1.245 1.364a1.054 1.054 0 0 1 .347-.061.9.9 0 0 1 .579.21l.462.375a22.2 22.2 0 0 0 2.094 1.565l.077-.041a1.178 1.178 0 0 1 .025-.191 29.844 29.844 0 0 0-2.567-2.258zM43.635 55.1c-2.353 3.672-6.779 5.873-11.839 5.89h-.054c-5.06-.017-9.485-2.218-11.838-5.89-1.464-2.283-2.367-5.594-2.759-10.122a5.05 5.05 0 0 1 .639-2.3 6.857 6.857 0 0 0 .812-3.152 6.408 6.408 0 0 0-.567-2.382 1.2 1.2 0 0 1-.157-.5c.3-3.971.63-7.1 1.819-9.815l1.429-2.54a18.822 18.822 0 0 1 1.843-2.365c.266-.288.534-.559.8-.813A13.1 13.1 0 0 0 31.77 23.5a13.089 13.089 0 0 0 8-2.389q.4.381.8.813a18.661 18.661 0 0 1 1.8 2.3l1.443 2.54c1.212 2.725 1.541 5.876 1.848 9.878a1.2 1.2 0 0 1-.157.5 6.428 6.428 0 0 0-.567 2.382 6.857 6.857 0 0 0 .812 3.152 5.052 5.052 0 0 1 .64 2.3C46 49.506 45.1 52.817 43.635 55.1zm-29.708 3.181h.583v1.166h-.583zm0 2.915h.583v1.166h-.583zm1.166-1.166h1.166v.583h-1.166zm-2.915 0h1.166v.583h-1.166M55.06 17.524h.583v1.166h-.583zm0 2.916h.583v1.166h-.583zm1.166-1.166h1.166v.583h-1.166zm-2.915 0h1.166v.583h-1.166" fill="#36384b"/><path d="M31.72 53.371c-4.476 0-8.236-1.537-10.081-4.13a.5.5 0 0 1 .814-.58c1.634 2.3 5.178 3.71 9.275 3.71h.159c4.089-.037 7.71-1.49 9.226-3.7a.5.5 0 0 1 .825.564c-1.721 2.512-5.569 4.1-10.042 4.138zm0-4.992c-4.476 0-8.236-1.537-10.081-4.13a.5.5 0 0 1 .814-.58c1.634 2.3 5.178 3.71 9.275 3.71h.159c4.089-.037 7.71-1.49 9.226-3.7a.5.5 0 0 1 .825.564c-1.721 2.512-5.569 4.1-10.042 4.138zM10.075 14.04h.583v1.166h-.583zm0 2.916h.583v1.166h-.583zm1.166-1.167h1.166v.583h-1.166zm-2.915 0h1.166v.584H8.326" fill="#36384b"/></g></svg>