<svg xmlns="http://www.w3.org/2000/svg" viewBox="0 0 72 72"><g data-name="Layer 1"><ellipse cx="33.486" cy="32.285" rx="26.195" ry="18.351" fill="#a9ffd6"/><path d="M52.074 6.538l-.086.073a166.104 166.104 0 0 0-3.43 2.985l-1.711 1.643c-.175.2-.369.4-.562.614-.347.373-.7.758-1.029 1.162-.166.225-.348.452-.53.679a11.925 11.925 0 0 0-.921 1.257c-.143.229-.291.45-.437.672-.218.33-.442.668-.644 1.018.262.073.527.155.787.244.142-.26.29-.515.44-.77.12-.208.241-.416.359-.627a11.844 11.844 0 0 1 .847-1.285c.163-.224.326-.449.481-.682.307-.424.637-.815.955-1.194.179-.214.358-.427.534-.644l1.619-1.721c1-1 2.078-2.033 3.391-3.271l.035-.071.1-1.254c.042-.527.085-1.065.132-1.6-.058.52-.122 1.039-.184 1.549zm-26.214.121l.033.031c1.372 1.3 2.416 2.3 3.385 3.264l1.611 1.713c.185.229.362.437.537.646.322.383.656.779.959 1.2.161.242.324.467.487.691a11.6 11.6 0 0 1 .85 1.29c.114.2.233.408.353.613.16.275.321.55.472.83.263-.093.528-.178.786-.252-.209-.367-.444-.72-.672-1.063a29.213 29.213 0 0 1-.434-.666 12.28 12.28 0 0 0-.927-1.266 20.89 20.89 0 0 1-.534-.684c-.317-.394-.674-.778-1.019-1.15-.2-.21-.39-.42-.581-.634l-1.7-1.632c-1.224-1.1-2.472-2.17-3.422-2.979l-.085-.073-.143-1.169c-.067-.543-.134-1.093-.2-1.646.053.581.1 1.158.145 1.726z" fill="#36384b"/><path d="M32.978 23.731a4.073 4.073 0 0 1 .128-2.5c.558-.982 2.946-1.816 4.413-1.982l.379-.043.143-.936c.006-.344.654-.911 1.057-1.006.4.095 1.052.658 1.052.93l.151 1.012.379.043c1.466.166 3.852 1 4.41 1.981a4.03 4.03 0 0 1 .16 2.373L39.01 26z" fill="#a2acff"/><path d="M39.1 17.8a1.583 1.583 0 0 1 .552.468v.007l.012.077.087.557.117.753.758.086c1.466.167 3.614 1 4.032 1.735a3.293 3.293 0 0 1 .144 1.76l-5.792 2.222-5.588-2.1a3.4 3.4 0 0 1 .121-1.884c.417-.734 2.566-1.566 4.033-1.733l.76-.086.116-.756.085-.557.012-.075v-.006a1.57 1.57 0 0 1 .551-.468m0-1.04c-.58.07-1.55.831-1.55 1.438l-.086.557c-1.345.152-4.074.972-4.789 2.232a4.8 4.8 0 0 0-.123 3.12l6.463 2.428 6.674-2.56a4.7 4.7 0 0 0-.162-2.988c-.715-1.26-3.444-2.08-4.787-2.232l-.09-.555c0-.607-.97-1.368-1.553-1.438z" fill="#36384b"/><path d="M38.957 65.478a18.09 18.09 0 0 1-1.557-1.293 9.592 9.592 0 0 0-1.536-.963c-1.737-.977-4.363-2.452-5.594-4.66a38.291 38.291 0 0 1-3.644-25.78c1.028-4.275 3.468-6.129 4.954-6.884l7.043 2.646a1.1 1.1 0 0 0 .392.072 1.134 1.134 0 0 0 .4-.072l7.071-2.713c1.527.731 4.039 2.569 5.094 6.951a38.29 38.29 0 0 1-3.644 25.78c-1.22 2.187-3.963 3.66-5.778 4.633a9.588 9.588 0 0 0-1.635.99 17.813 17.813 0 0 1-1.566 1.293z" fill="#a2acff"/><path d="M66.187 29.854a.187.187 0 0 0-.156 0l-3.008 1.232-7.923-3.737a.537.537 0 0 0-.474.008l-4.066 1.592a9.7 9.7 0 0 0-2.277-2.579l3.552-2.337a.6.6 0 0 0 .275-.411l.69-4.122 1.157-2.179a.463.463 0 0 0-.1-.568.3.3 0 0 0-.221-.057.328.328 0 0 0-.215.161l-1.355 2.231a.461.461 0 0 0-.049.127l-.84 3.833-4.277 2.433a8.358 8.358 0 0 0-.4-.193l-7.264 2.787a.623.623 0 0 1-.221.041.6.6 0 0 1-.216-.04l-7.245-2.722c-.116.055-.24.118-.366.186l-4.374-2.492-.831-3.792a.509.509 0 0 0-.056-.167l-1.357-2.233a.329.329 0 0 0-.209-.158.278.278 0 0 0-.057-.007.269.269 0 0 0-.154.05.464.464 0 0 0-.119.581l1.187 2.266.658 4.037a.561.561 0 0 0 .233.38l3.711 2.443a9.745 9.745 0 0 0-2.176 2.5l-4.074-1.594a.531.531 0 0 0-.468-.007l-7.926 3.732-3.007-1.232a.2.2 0 0 0-.071-.015.178.178 0 0 0-.083.02.283.283 0 0 0-.148.171.348.348 0 0 0 .149.427l3.076 1.375a.226.226 0 0 0 .156.008l7.987-2.727 3.309 2.194a14.144 14.144 0 0 0-.406 1.37 31.215 31.215 0 0 0-.756 5.1l-4.571 3.452a.947.947 0 0 0-.376.906l2.443 16.56-2.145 3.041a.335.335 0 0 0 .026.4.177.177 0 0 0 .281-.018l2.46-3.026a.428.428 0 0 0 .087-.3L22.035 42.5l3.255-2.176a38.886 38.886 0 0 0 4.541 18.483c1.791 3.214 6.3 4.911 7.233 5.752a13.793 13.793 0 0 0 1.893 1.514 13.732 13.732 0 0 0 1.893-1.514c.934-.841 5.724-2.538 7.516-5.752a38.9 38.9 0 0 0 4.541-18.483l3.254 2.176-1.544 16.237a.456.456 0 0 0 .081.348l2.458 3.026a.2.2 0 0 0 .136.077.174.174 0 0 0 .133-.049.328.328 0 0 0 .039-.415l-2.145-3.041.017-.113 2.425-16.447a.925.925 0 0 0-.327-.869l-4.619-3.489a31.215 31.215 0 0 0-.756-5.1c-.117-.488-.257-.94-.406-1.37l3.311-2.187 7.947 2.713a.256.256 0 0 0 .2.006l3.078-1.376a.349.349 0 0 0 .149-.419.289.289 0 0 0-.151-.178zM47.492 58.318c-1.148 2.06-3.814 3.491-5.578 4.438a9.792 9.792 0 0 0-1.734 1.058c-.56.5-.953.831-1.223 1.041a23.367 23.367 0 0 1-1.224-1.042 9.968 9.968 0 0 0-1.625-1.027c-1.689-.949-4.241-2.382-5.4-4.468A37.753 37.753 0 0 1 27.11 32.9a9.464 9.464 0 0 1 4.5-6.454l6.833 2.567a1.6 1.6 0 0 0 1.147 0l6.862-2.632c1.451.75 3.668 2.519 4.633 6.523a37.752 37.752 0 0 1-3.593 25.414z" fill="#36384b"/><path fill="#36384b" d="M17.224 35.63h.583v1.166h-.583zm0 2.915h.583v1.166h-.583zm1.166-1.166h1.166v.583H18.39zm-2.915 0h1.166v.583h-1.166m47.121 8.43h.583v1.166h-.583zm0 2.915h.583v1.166h-.583zm1.166-1.166h1.166v.583h-1.166zm-2.915 0h1.166v.583h-1.166M30.9 50.274c.618 1.783 2.281 6.082 4.349 7.495.773.624 1.464 1.087 2.074 1.5a14.956 14.956 0 0 1 1.521 1.124l.061-.083.062.081a15.419 15.419 0 0 1 1.519-1.121c.623-.419 1.31-.881 1.99-1.435 2.141-1.466 3.814-5.773 4.435-7.557a.419.419 0 0 0-.022-.333.431.431 0 0 0-.79.048c-.728 2.11-2.235 5.847-4.137 7.15-.683.556-1.359 1.01-1.956 1.411-.3.2-.578.4-.85.593l-.251.179-.251-.179c-.272-.2-.546-.388-.849-.592-.6-.4-1.273-.856-2.04-1.474-1.834-1.253-3.328-4.98-4.053-7.088a.424.424 0 0 0-.4-.285.472.472 0 0 0-.128.019.427.427 0 0 0-.26.217.42.42 0 0 0-.024.33zm8.214-4.132a26.544 26.544 0 0 1-8.02-1.254.5.5 0 1 1 .3-.953 25.517 25.517 0 0 0 15.5 0 .5.5 0 0 1 .3.955 27.182 27.182 0 0 1-8.08 1.252z"/><path d="M39.114 49.916a17.456 17.456 0 0 1-4.65-.633.5.5 0 0 1 .265-.965 16.629 16.629 0 0 0 8.837 0 .508.508 0 0 1 .613.355.5.5 0 0 1-.355.612 18.175 18.175 0 0 1-4.71.631z" fill="#36384b"/></g></svg>