<svg xmlns="http://www.w3.org/2000/svg" viewBox="0 0 72 72"><g data-name="Layer 1"><ellipse cx="32.248" cy="35" rx="26.195" ry="18.351" fill="#a9ffd6"/><path d="M19.522 27.7l3.051 31.147a7.816 7.816 0 0 0 7.786 7.128h20.893a7.333 7.333 0 0 0 7.3-6.655L61.8 27.7z" fill="#a2acff"/><ellipse cx="51.74" cy="56.598" rx="4.904" ry="2.129" transform="rotate(-18.654 51.742 56.598)" fill="#fff"/><path fill="#fff" d="M16.83 23.917h47.188v3.646H16.83z"/><path fill="#36384b" d="M14.498 13.221h.583v1.166h-.583zm0 2.915h.583v1.166h-.583zm1.166-1.166h1.166v.583h-1.166zm-2.915 0h1.166v.583h-1.166zm21.145-3.57a1.647 1.647 0 1 1-1.646 1.646 1.646 1.646 0 0 1 1.646-1.646m0-1a2.647 2.647 0 1 0 2.647 2.646 2.649 2.649 0 0 0-2.647-2.646zM31.6 6.124a.648.648 0 1 1-.648.648.648.648 0 0 1 .648-.648m0-.834a1.482 1.482 0 1 0 1.482 1.482A1.484 1.484 0 0 0 31.6 5.29zm23.626 39.456a.561.561 0 0 0-.38-.2h-.049a.55.55 0 0 0-.357.131.556.556 0 0 0-.2.38l-.173 2.034a.548.548 0 0 0 .129.407.557.557 0 0 0 .38.2.566.566 0 0 0 .6-.509l.174-2.034a.555.555 0 0 0-.124-.409zM56.5 29.854a.556.556 0 0 0-.378-.2h-.05a.562.562 0 0 0-.553.51l-.952 11.152a.557.557 0 0 0 .509.6h.005a.57.57 0 0 0 .6-.509l.952-11.151a.549.549 0 0 0-.133-.402z"/><path d="M16.933 23.088a.56.56 0 0 0-.559.558v3.975a.56.56 0 0 0 .558.558h2.157l2.964 31.394a7.538 7.538 0 0 0 7.511 6.9h21.884a7.538 7.538 0 0 0 7.51-6.884l.757-8.67c.173-.285.346-.583.515-.9 3.392-6.338 4.558-12.046 3.223-21.523l-.046-.317h.66a.56.56 0 0 0 .558-.558v-3.975a.56.56 0 0 0-.558-.558M50.924 65.355H30.076a6.979 6.979 0 0 1-6.954-6.386l-2.913-30.79h1.346l.04.231a66.6 66.6 0 0 0 .831 4.051C24.894 43.006 34.665 56.6 46.372 58.485l.151.016.069.134a2.543 2.543 0 0 0 2.882 1.216l5.594-1.7a2.438 2.438 0 0 0 1.623-3.051l-.049-.162.091-.2c.364-.352.734-.75 1.1-1.183l.567-.655-.518 6.074a6.981 6.981 0 0 1-6.958 6.381zm-2.107-9.236l5.155-1.57a1.334 1.334 0 0 1 1.007.1 1.324 1.324 0 0 1-.235 2.434l-5.6 1.7a1.322 1.322 0 0 1-1.652-.879 1.989 1.989 0 0 1 1.325-1.785zm9.739-5.448a17.362 17.362 0 0 1-2.447 3.114l-.165.164-.19-.133a2.854 2.854 0 0 0-.248-.154 2.423 2.423 0 0 0-1.859-.181l-5.587 1.7a2.453 2.453 0 0 0-1.7 1.914l-.047.262-.263-.035c-4.322-.579-9.233-3.509-13.192-8.252C28.5 43.848 25.4 40 23.51 32.2a58.24 58.24 0 0 1-.768-3.692l-.057-.326h38.106zm2.055-4.194l-.726 1.91 2.183-20.021.325 2.415c.799 6.529.467 9.781-1.782 15.696zm2.9-19.415h-46.02V24.2h46.018zm-.659-12.967h.583v1.166h-.583zm0 2.916h.583v1.166h-.583zm1.166-1.167h1.166v.583h-1.166zm-2.915 0h1.166v.583h-1.166zM26.7 11.188a1.081 1.081 0 1 1-1.081 1.081 1.081 1.081 0 0 1 1.081-1.081m0-1a2.081 2.081 0 1 0 2.081 2.081 2.083 2.083 0 0 0-2.081-2.081zm16.663-5.12h.583v1.166h-.583zm0 2.915h.583v1.166h-.583zm1.166-1.166h1.166V7.4h-1.166zm-2.915 0h1.166V7.4h-1.166z" fill="#36384b"/><path d="M60.136 23.088c-.478-4.624-2.535-7.026-8.058-6.34-3.859-3.4-7.738-6.648-13.06 1.029-3.243-1.364-5.508.167-7.058 3.814a3.756 3.756 0 0 0-2.928 1.581 4.733 4.733 0 0 0-2.622-.8 4.921 4.921 0 0 0 0 9.841 4.82 4.82 0 0 0 4.536-3.293 3.744 3.744 0 0 0 1.159.2c2.084 0 5.477-2.742 5.477-4.826 0-.668.792-.6.487-1.142z" fill="#fff"/><path d="M60.65 23.69a10.524 10.524 0 0 0 .138-1.171 6.709 6.709 0 0 0-6.906-6.477 6.545 6.545 0 0 0-1.291.133l-.113.022-.075.014-.04-.064-.062-.1a7.657 7.657 0 0 0-6.542-3.657 7.764 7.764 0 0 0-6.952 4.391l-.061.126-.04.084-.09-.025-.135-.038a5.387 5.387 0 0 0-1.494-.211 5.582 5.582 0 0 0-5.37 4.138l-.028.105-.019.07-.072.011-.109.016A4.32 4.32 0 0 0 28.77 22.5l-.08.093-.053.061-.075-.033-.112-.048a5.246 5.246 0 0 0-2.11-.446 5.344 5.344 0 0 0 0 10.687 5.281 5.281 0 0 0 4.768-2.974l.054-.11.037-.074.081.013.122.019a3.923 3.923 0 0 0 .631.051h.046c3.874 0 5.961-4.3 6.62-5.683a.622.622 0 0 0 .026-.477.615.615 0 0 0-.319-.354.6.6 0 0 0-.267-.063.63.63 0 0 0-.565.355l-.063.133c-1.465 3.143-3.346 4.842-5.429 4.842h-.052a3.138 3.138 0 0 1-1.007-.186.626.626 0 0 0-.8.4A4.1 4.1 0 1 1 28.5 24a.62.62 0 0 0 .33.094.656.656 0 0 0 .147-.017.618.618 0 0 0 .388-.286 3.093 3.093 0 0 1 2.623-1.53c.042 0 .07.006.1.006a.615.615 0 0 0 .627-.54 4.34 4.34 0 0 1 4.273-3.761 4.282 4.282 0 0 1 1.809.41.631.631 0 0 0 .264.058.618.618 0 0 0 .241-.049.631.631 0 0 0 .347-.371 6.448 6.448 0 0 1 11.881-.794.629.629 0 0 0 .557.341.605.605 0 0 0 .169-.024 5.922 5.922 0 0 1 1.627-.248 5.462 5.462 0 0 1 5.658 5.229 4.606 4.606 0 0 1-.247 1.421.41.41 0 0 0 .1.009 6.153 6.153 0 0 0 1.256-.258z" fill="#36384b"/></g></svg>