<svg xmlns="http://www.w3.org/2000/svg" viewBox="0 0 72 72"><g data-name="Layer 1"><ellipse cx="34.54" cy="35.147" rx="26.195" ry="18.351" fill="#a9ffd6"/><path d="M19.515 59.758a35.214 35.214 0 0 1-4.986-.6 39.638 39.638 0 0 0-6.37-.706c-.212 0-.422 0-.632.012a15.95 15.95 0 0 1-.573.011c-2.951 0-5.156-.868-5.362-2.109-.075-.456.061-1.309 1.825-1.911a11.089 11.089 0 0 1 2.952-.355c1.6-.062 3.252-.125 3.949-.918a11.16 11.16 0 0 1 8.827-3.807c1.032 0 2.072.08 3.173.164.612.047 1.239.095 1.884.13.861.047 1.532.128 2.125.2A13.241 13.241 0 0 0 27.91 50a6.764 6.764 0 0 0 2.306-.442 4.648 4.648 0 0 1 1.559-.3 2.224 2.224 0 0 1 2.411 2 1.125 1.125 0 0 1-1.015 1.262 2.749 2.749 0 0 0-.672.145 2.378 2.378 0 0 0 .565.363c.659.279 1.158.48 1.538.633a4.577 4.577 0 0 1 1.659.9 1.209 1.209 0 0 1 .331 1.334c-.378.979-1.909 1.476-4.549 1.476A38.644 38.644 0 0 1 27.8 57.1c-.8-.083-1.484-.154-2.076-.154a3.34 3.34 0 0 0-1.786.4 2.349 2.349 0 0 0-.7.74c-.53.743-1.191 1.669-3.577 1.669z" fill="#a3acff"/><path d="M31.775 49.758c2.075 0 2.347 2.2 1.362 2.264-1.922.226-1.238 1-.291 1.457 2.281.969 2.531.951 3.079 1.449s.547 1.94-3.882 1.94c-2.9 0-4.839-.418-6.322-.418a3.875 3.875 0 0 0-2.039.468c-1.2.7-.887 2.341-4.023 2.341h-.137c-3.173-.047-7.372-1.306-11.361-1.306-.218 0-.435 0-.652.011a14.91 14.91 0 0 1-.553.011C2.57 57.974.423 56 3.578 54.928c1.922-.656 5.753.131 7.116-1.419a10.724 10.724 0 0 1 8.451-3.636c1.589 0 3.241.2 5.03.293 1.723.094 2.7.334 3.735.334a7.19 7.19 0 0 0 2.47-.47 4.172 4.172 0 0 1 1.395-.272m0-1a5.182 5.182 0 0 0-1.733.331 6.253 6.253 0 0 1-2.132.411 12.7 12.7 0 0 1-1.523-.129c-.6-.073-1.28-.156-2.158-.2a82.904 82.904 0 0 1-1.873-.129c-1.111-.085-2.16-.165-3.211-.165a11.736 11.736 0 0 0-9.168 3.94c-.59.668-2.2.73-3.627.784a11.367 11.367 0 0 0-3.095.384C1.143 54.7 1 55.835 1.1 56.447c.254 1.535 2.553 2.527 5.857 2.527q.288 0 .59-.011c.2-.008.41-.011.615-.011a39.1 39.1 0 0 1 6.288.7 35.728 35.728 0 0 0 5.059.607h.151c2.442 0 3.278-.889 3.984-1.879a1.936 1.936 0 0 1 .544-.6 2.884 2.884 0 0 1 1.533-.332c.567 0 1.242.07 2.024.152a39.176 39.176 0 0 0 4.3.266c2.907 0 4.548-.587 5.015-1.8a1.7 1.7 0 0 0-.461-1.884 4.992 4.992 0 0 0-1.809-.99c-.246-.1-.543-.219-.909-.37a1.718 1.718 0 0 0 .807-1.587 2.714 2.714 0 0 0-2.911-2.483zm-6.555-4.403a.983.983 0 1 0-1.367.254.984.984 0 0 0 1.367-.254zm-.033-5.645a.983.983 0 1 0 .254 1.367.984.984 0 0 0-.254-1.367zm4.59.443a.983.983 0 1 0-1.367.254.985.985 0 0 0 1.367-.254z" fill="#36384b"/><path fill="#fff" d="M34.304 38.788l3.91-8.481 8.69.842 4.414 2.134 2.4 3.678-.357 6.056-1.97 2.961-2.766 1.708-13.831-7.309-.49-1.589z"/><path d="M34.353 40.7c2.029-.874 4.677-.671 8.406 2.5 3.442 3.469 5.134 3.55 8.354 3.005a9.4 9.4 0 0 1-6.956 2.254c-5.568-.808-11.368-5.482-9.804-7.759z" fill="#a3acff"/><path fill="#36384b" d="M49.357 46.847zm21.267-2.818a.543.543 0 0 0-.292-.3.53.53 0 0 0-.417 0 .542.542 0 0 0-.3.292l-2.078 4.864-13.68-5.831.143-.482a9.635 9.635 0 0 0-7.331-12.218l-.169-.034a49.968 49.968 0 0 0-7.187-.678l-.85-.04a.549.549 0 0 0-.528.331l-4.955 11.6a.675.675 0 0 0-.1.3.553.553 0 0 0 .237.5 54.664 54.664 0 0 0 6.132 5.294A9.644 9.644 0 0 0 44.6 49.4a9.367 9.367 0 0 0 5.418-1.528 9.528 9.528 0 0 0 3.166-3.372l.246-.438 13.675 5.823-2.086 4.882a.549.549 0 0 0 .288.717.55.55 0 0 0 .643-.166.51.51 0 0 0 .074-.125l4.6-10.745a.546.546 0 0 0 0-.419zm-25.8 4.283a8.473 8.473 0 0 1-2.563-.4 13.588 13.588 0 0 1-2.377-1.18A50.178 50.178 0 0 1 34.356 42l-.278-.27.034-.079.187-.438c2.33-1 5.142-.182 8.1 2.331 2.611 2.631 4.3 3.4 6.347 3.4.237 0 .49-.026.738-.045-.022.015-.04.034-.063.048a8.478 8.478 0 0 1-4.599 1.365zm6.066-2.582c-3.055.506-4.562.351-7.806-2.917-3.556-3.019-6.344-3.3-8.259-2.823l3.964-9.277.388.016a49.477 49.477 0 0 1 7.2.681l.192.048a8.508 8.508 0 0 1 4.32 14.272zm-9.105-21.739h.583v1.166h-.583zm0 2.916h.583v1.166h-.583zm1.166-1.166h1.166v.583h-1.166zm-2.915 0h1.166v.583h-1.166m-32.98-.875h.583v1.166h-.583zm0 2.915h.583v1.166h-.583zm1.166-1.166h1.166v.583H8.222zm-2.916 0h1.166v.583H5.306m45.291-16.823h.583v1.166h-.583zm0 2.916h.583v1.166h-.583zm1.166-1.166h1.166v.583h-1.166zm-2.915 0h1.166v.583h-1.166z"/><circle cx="56.808" cy="15.63" r="1.166" fill="#a9ffd6"/><circle cx="4.723" cy="33.514" r=".583" fill="#a9ffd6"/></g></svg>