<svg xmlns="http://www.w3.org/2000/svg" viewBox="0 0 72 72"><g data-name="Layer 1"><path d="M61.329 26.845A27.066 27.066 0 0 0 49.68 13.156l.5-.865a28.075 28.075 0 0 1 12.08 14.2zm2.307 9.693h-1a26.449 26.449 0 0 1-20.928 25.78l-.437-2.2-2.933 3.485 4 1.865L41.9 63.3a27.449 27.449 0 0 0 21.736-26.762zm-51.644 20.52l.008-.583 1.166.015-.008.583zm-2.915-.039l.008-.583 1.166.015-.008.583zm1.726 1.772l.015-1.166.583.008-.015 1.166zm.039-2.915l.015-1.166.583.008-.015 1.166zM38.954 9.53l-3.429-2.775L35.418 9A27.5 27.5 0 0 0 8.7 36.368v.17A27.387 27.387 0 0 0 12.95 51.1l.806-.594A26.391 26.391 0 0 1 9.7 36.536v-.166A26.5 26.5 0 0 1 35.37 10l-.1 2.2zm-20.47 47.951a27.32 27.32 0 0 0 12.706 5.993l.18-.985a26.312 26.312 0 0 1-12.192-5.734zM28.758 5.014l.008-.583 1.166.015-.008.583zm-2.915-.038l.008-.583 1.166.015-.008.583zm1.727 1.772l.014-1.166.583.008-.015 1.166zm.038-2.915l.015-1.166.583.008-.015 1.166z" fill="#36384b"/><path d="M5.326 39.938c-2.164-12.909 6.092-27.07 18.405-31.569l.343.94C12.191 13.65 4.224 27.315 6.312 39.771zM46.7 64.6l-.2-.981c10.643-2.163 16.421-11.512 18.135-18.86l.973.226C63.831 52.621 57.81 62.34 46.7 64.6z" fill="#36384b"/><circle cx="36" cy="66.054" r=".583" fill="#a9ffd6"/><circle cx="7.529" cy="51.101" r="1.166" fill="#a9ffd6"/><path d="M53.3 35.181A3.822 3.822 0 0 1 49.478 39H22.459a3.822 3.822 0 0 1-3.822-3.822V21.592H53.3z" fill="#a2acff"/><path fill="#fff" d="M22.897 35.09h26.142v3.913H22.897z"/><path d="M18.137 21.092v14.089A4.323 4.323 0 0 0 22.4 39.5h27.14a4.323 4.323 0 0 0 4.26-4.316V21.092zM23.4 38.5v-2.91h25.14v2.91zm29.4-3.322a3.323 3.323 0 0 1-3.26 3.322v-3.91H22.4v3.91a3.322 3.322 0 0 1-3.26-3.316V22.092H52.8z" fill="#36384b"/><path fill="#36384b" d="M43.937 24.142h2.13v1h-2.13zm-22.17 2.608h28.414v1H21.767zm7.186 24.824a.5.5 0 0 1-.391-.811c1.407-1.763.839-2.532.119-3.5-.819-1.107-1.838-2.484.621-5.052a.5.5 0 1 1 .722.691c-1.876 1.96-1.316 2.717-.539 3.766s1.745 2.359-.141 4.722a.5.5 0 0 1-.391.184zm4.937-.001a.5.5 0 0 1-.39-.812c1.406-1.761.838-2.53.118-3.5-.819-1.107-1.838-2.484.621-5.052a.5.5 0 1 1 .722.691c-1.876 1.96-1.315 2.717-.539 3.766s1.745 2.359-.141 4.722a.5.5 0 0 1-.391.185zm4.937 0a.5.5 0 0 1-.39-.811c1.406-1.763.838-2.532.118-3.5-.819-1.107-1.838-2.484.621-5.051a.5.5 0 1 1 .722.691c-1.876 1.959-1.315 2.717-.54 3.765s1.746 2.359-.14 4.722a.5.5 0 0 1-.391.184zm4.937 0a.5.5 0 0 1-.39-.811c1.406-1.763.838-2.532.118-3.5-.819-1.107-1.838-2.484.621-5.051a.5.5 0 1 1 .722.691c-1.876 1.959-1.315 2.717-.54 3.765s1.747 2.359-.14 4.722a.5.5 0 0 1-.391.184z"/><circle cx="65.611" cy="34.09" r="1.166" fill="#a9ffd6"/><circle cx="48.778" cy="24.648" r="1.21" fill="#36384b"/></g></svg>