<svg xmlns="http://www.w3.org/2000/svg" viewBox="0 0 72 72"><g data-name="Layer 1"><ellipse cx="30.195" cy="44.367" rx="26.195" ry="18.351" fill="#a9ffd6"/><path fill="#a2acff" d="M35.901 21.917l5.616 10.001 2.605-1.462-4.155-9.817-4.066 1.278zm8.616-9.728l.154 5.42 4.846-.979v-2.963l-5-1.478z"/><path fill="#fff" d="M24.107 29.403h10.204v-7.101l10.206-3v-8.309l-1.678-.846-15.862-1.154-3.517 1.385-9.176 5.542-.308 2.5 10.131 5.574v5.409z"/><path d="M24.107 29.4h10.2l10.532 11.954 1.435 6.78v14.658c-.478 2.53-1.906 3.629-4.293 3.282h-18.44c-2.162.524-3.561-.755-4.206-3.811z" fill="#fff"/><path d="M25.131 49.458l-1.539 10.231c-.4 1.8-.042 3.209 3.077 3.154h13.617c1.6-.452 3.057-1.091 2.385-4.385V49.14c-2.7.788-5.364 1.244-7.924.472-3.663-1.131-7.069-1.656-9.616-.154z" fill="#a2acff"/><path d="M50.008 15.8v-1.547a1.545 1.545 0 0 0-1.246-1.486l-3.689-.655v-.38a1.864 1.864 0 0 0-1.7-1.847L28.1 8.607a5.15 5.15 0 0 0-.421-.016A9.263 9.263 0 0 0 23.4 9.729L15 14.892a2.956 2.956 0 0 0-1.633 2.515 2.958 2.958 0 0 0 1.742 2.44l7.991 4.437a1.658 1.658 0 0 1 .736 1.251v2.785a18.686 18.686 0 0 1-.165 2.263l-4.64 31.658a3.868 3.868 0 0 0 3.926 4.544h19.407a4.507 4.507 0 0 0 4.5-4.5V46.857a12.224 12.224 0 0 0-2.792-7.223l-8.763-9.647a2.966 2.966 0 0 1-.643-1.667v-5.14a1.009 1.009 0 0 1 .664-.887l.106-.033.045.1a62.385 62.385 0 0 0 5.061 9.3 1.842 1.842 0 0 0 2.442.559l.563-.331a1.88 1.88 0 0 0 .733-2.4 57.206 57.206 0 0 1-3.167-8.473l-.036-.125 2.411-.586a2.152 2.152 0 0 0 1.582-2.015v-.35l3.689-.653a1.546 1.546 0 0 0 1.249-1.486zm-6.779 24.6a11.291 11.291 0 0 1 2.493 6.454v15.428a3.362 3.362 0 0 1-3.358 3.359H22.958a2.727 2.727 0 0 1-2.794-3.234L24.8 30.749c.027-.184.052-.4.076-.622l.012-.112h3.892v16.5a.573.573 0 0 0 1.145 0v-16.5h4.049l.035.066a3.308 3.308 0 0 0 .457.676zm.017-10.427a.741.741 0 0 1-.275.924l-.564.332a.662.662 0 0 1-.34.091.678.678 0 0 1-.567-.293 61.3 61.3 0 0 1-4.868-8.906l-.061-.137 3.4-.825.033.115a58.515 58.515 0 0 0 3.242 8.702zm.683-11.685a1 1 0 0 1-.709.9l-8.114 1.973a2.151 2.151 0 0 0-1.583 2.015v5.14a2.949 2.949 0 0 0 .036.408l.019.142h-8.61v-.13c.006-.148.008-.293.008-.42v-2.781a2.757 2.757 0 0 0-1.325-2.251l-7.99-4.437a1.913 1.913 0 0 1-1.155-1.465 1.908 1.908 0 0 1 1.094-1.515L24 10.7a7.865 7.865 0 0 1 4.01-.957l15.268 1.277a.734.734 0 0 1 .652.708zm4.934-2.488a.4.4 0 0 1-.3.359l-3.489.618v-3.5l3.489.619a.4.4 0 0 1 .3.359z" fill="#36384b"/><path d="M43.247 49.045a.573.573 0 0 0-.767-.538c-.15.055-.295.109-.442.165l-.058.021a9.493 9.493 0 0 1-3.944.749 9.441 9.441 0 0 1-3.927-.748 10.519 10.519 0 0 0-4.333-.824 10.578 10.578 0 0 0-4.343.822l-.06.023c-.182.068-.364.137-.552.2a.572.572 0 0 0-.378.458l-1.569 10.7a2.945 2.945 0 0 0 2.987 3.457h13.986a3.408 3.408 0 0 0 3.4-3.4V49.045zm-3.4 13.343H25.861a1.8 1.8 0 0 1-1.855-2.148l1.52-10.36.315-.118a9.479 9.479 0 0 1 3.935-.747 9.441 9.441 0 0 1 3.927.748 10.523 10.523 0 0 0 4.333.824 10.37 10.37 0 0 0 3.9-.653l.168-.062v10.256a2.262 2.262 0 0 1-2.257 2.26z" fill="#36384b"/><path d="M32.275 57.946a6.893 6.893 0 0 1-2.35-5.184V50.7a.573.573 0 0 0-1.145 0v2.06a8.048 8.048 0 0 0 2.741 6.046.592.592 0 0 0 .807-.053.573.573 0 0 0-.053-.809zm20.355-45.5l10.968-1.735.193 1.22-10.967 1.736zm0 5.717l.194-1.22 10.967 1.735-.193 1.22zm8.347-3.478h7.972v1.236h-7.972zm-6.318 0h4.928v1.236h-4.928zM46.726 4.194h.583V5.36h-.583zm0 2.915h.583v1.166h-.583zm1.166-1.166h1.166v.583h-1.166zm-2.916 0h1.166v.583h-1.166zm5.722 19.079h.583v1.166h-.583zm0 2.915h.583v1.166h-.583zm1.166-1.166h1.166v.583h-1.166zm-2.915 0h1.166v.583h-1.166z" fill="#36384b"/><circle cx="12.833" cy="25.74" r="1.166" fill="#a9ffd6"/><circle cx="56.557" cy="27.701" r=".583" fill="#a9ffd6"/></g></svg>