<svg xmlns="http://www.w3.org/2000/svg" viewBox="0 0 72 72"><g data-name="Layer 1"><ellipse cx="38.471" cy="40.756" rx="26.195" ry="18.351" fill="#a9ffd6"/><path fill="#a2acff" d="M27.262 24.19l-5.068 18.547 12.585 12.786 18.18-3.896 4.902-18.879-13.193-12.386-17.406 3.828z"/><path d="M63.21 60.493l-9.579-9.325 4.885-17.741a.617.617 0 0 0-.158-.6l-13.11-13.11a.617.617 0 0 0-.589-.161l-17.82 4.568-7.171-7.05.1-.167 5.373-9.44a.616.616 0 0 0-.7-.9.61.61 0 0 0-.371.288L18.319 16.97l-.1.057-11 4.035a.615.615 0 0 0-.365.789.627.627 0 0 0 .788.366l11.292-4.14 1.213 1.192-10.785 3.954a.616.616 0 0 0-.362.789.63.63 0 0 0 .789.366l11.329-4.154L25.972 25l-.036.139L21.4 42.812a.625.625 0 0 0 .161.588l12.98 12.979a.627.627 0 0 0 .588.161l17.627-4.5 9.593 9.337a.629.629 0 0 0 .87-.012.617.617 0 0 0-.012-.869zm-10.768-9.645l-.14.036-17.135 4.377-12.483-12.483.035-.138 4.442-17.328 17.465-4.476 12.608 12.609-.038.14z" fill="#36384b"/><path d="M30.453 29.556a.6.6 0 0 0-.056-.467.612.612 0 0 0-.371-.291.629.629 0 0 0-.167-.023.613.613 0 0 0-.589.45l-3.215 11.5a.612.612 0 0 0 .425.757.618.618 0 0 0 .759-.426zm12.564-4.501a.609.609 0 0 0 .19.43l8.648 8.23a.632.632 0 0 0 .872-.022.617.617 0 0 0-.023-.87l-8.648-8.23a.616.616 0 0 0-.424-.169h-.016a.617.617 0 0 0-.6.631zm-6.08 26.054a.609.609 0 0 0-.067.466.615.615 0 0 0 .748.443l11.565-2.964a.615.615 0 0 0 .443-.749.617.617 0 0 0-.6-.461.656.656 0 0 0-.151.018l-11.562 2.964a.61.61 0 0 0-.376.283zm-5.799-35.337h.583v1.166h-.583zm0 2.915h.583v1.166h-.583zm1.166-1.166h1.166v.583h-1.166zm-2.915 0h1.166v.583h-1.166m33.403 22.069h.583v1.166h-.583zm0 2.915h.583v1.166h-.583zm1.166-1.166h1.166v.583h-1.166zm-2.915 0h1.166v.583h-1.166M43.376 58.84h.583v1.166h-.583zm0 2.915h.583v1.166h-.583zm1.166-1.166h1.166v.583h-1.166zm-2.915 0h1.166v.583h-1.166" fill="#36384b"/><circle cx="36.098" cy="14.732" r=".583" fill="#a9ffd6"/></g></svg>