<svg data-name="Layer 1" xmlns="http://www.w3.org/2000/svg" viewBox="0 0 67 67"><path d="M44.564 26.934a2.36 2.36 0 0 0-.96-.5 5.579 5.579 0 0 0-1.547-.18h-2.473v4.776h2.785a4.559 4.559 0 0 0 1.392-.18 2.163 2.163 0 0 0 .876-.5 1.689 1.689 0 0 0 .443-.78 3.957 3.957 0 0 0 .121-1.008 2.709 2.709 0 0 0-.144-.876 1.8 1.8 0 0 0-.493-.752zm-19.619-.996a3.851 3.851 0 0 0-3.36 1.548 7.463 7.463 0 0 0-1.1 4.38 7.448 7.448 0 0 0 1.1 4.392 3.863 3.863 0 0 0 3.36 1.536 3.863 3.863 0 0 0 3.36-1.536 7.448 7.448 0 0 0 1.1-4.392 7.463 7.463 0 0 0-1.1-4.38 3.851 3.851 0 0 0-3.36-1.548z" fill="#a2acff"/><path d="M33.5 0A33.5 33.5 0 1 0 67 33.5 33.5 33.5 0 0 0 33.5 0zm-.935 35.609a7.871 7.871 0 0 1-1.584 2.832 6.849 6.849 0 0 1-2.556 1.8 9 9 0 0 1-3.456.624 8.924 8.924 0 0 1-3.432-.624 6.957 6.957 0 0 1-2.568-1.8 8.059 8.059 0 0 1-1.62-2.832 11.567 11.567 0 0 1-.564-3.743 11.577 11.577 0 0 1 .564-3.744 7.978 7.978 0 0 1 1.632-2.832 7.089 7.089 0 0 1 2.58-1.8 8.861 8.861 0 0 1 3.408-.624 8.928 8.928 0 0 1 3.432.624 6.869 6.869 0 0 1 2.556 1.8 8.031 8.031 0 0 1 1.6 2.832 11.809 11.809 0 0 1 .552 3.744 12.04 12.04 0 0 1-.544 3.743zm13.259 4.825L42.945 34h-3.361v6.432h-3.527V23.3h6.072a10.008 10.008 0 0 1 3.324.468 5.372 5.372 0 0 1 2.052 1.224 4.147 4.147 0 0 1 1.032 1.68 6.068 6.068 0 0 1 .287 1.812 5.873 5.873 0 0 1-.6 2.784 4.754 4.754 0 0 1-2.016 1.9l3.479 7.272z" fill="#a2acff"/></svg>