<svg xmlns="http://www.w3.org/2000/svg" viewBox="0 0 72 72"><g data-name="Layer 1"><ellipse cx="43.204" cy="42.798" rx="26.195" ry="18.351" fill="#a9ffd6"/><path fill="#36384b" d="M20.55 12.589h.583v1.166h-.583zm0 2.916h.583v1.166h-.583zm1.166-1.166h1.166v.583h-1.166zm-2.915 0h1.166v.583h-1.166z"/><circle cx="65.2" cy="28.791" r=".583" fill="#a9ffd6"/><path fill="#36384b" d="M10.212 28.432h.583v1.166h-.583zm0 2.915h.583v1.166h-.583zm1.166-1.166h1.166v.583h-1.166zm-2.915 0h1.166v.583H8.463z"/><path d="M49.9 25.629s3.607-1.056 4.746-6.607l-15.311-3.14C38.2 21.434 41.1 23.824 41.1 23.824m6.311 7.107v22.776l-3.207-2.714V28.566m-24.253-3.9v28.161h3.207v-26.8m27.656 26.278l8.653 2.136.655-2.655-6.155-1.519-3.153 2.038z" fill="#fff"/><path d="M59.467 54.941a.492.492 0 0 1-.12-.014l-8.654-2.137a.5.5 0 0 1-.151-.905l3.158-2.038a.492.492 0 0 1 .392-.066l6.155 1.52a.5.5 0 0 1 .365.6l-.655 2.656a.5.5 0 0 1-.485.379zm-7.41-2.841l7.043 1.736.415-1.685-5.458-1.351z" fill="#36384b"/><path fill="#a3acff" d="M3.332 22.69l1.288-6.284 62.856 12.889-1.288 6.283z"/><path d="M67.576 28.805L51.309 25.47c1.247-.828 3.068-2.629 3.831-6.348a.5.5 0 0 0-.074-.376.491.491 0 0 0-.316-.214l-15.311-3.139a.5.5 0 0 0-.59.389c-.763 3.719.2 6.091 1.023 7.343L4.72 15.917a.5.5 0 0 0-.59.389l-1.288 6.283a.5.5 0 0 0 .389.59l16.22 3.326v26.322a.5.5 0 0 0 .5.5h3.207a.5.5 0 0 0 .5-.5V38.7H43.7V51a.5.5 0 0 0 .177.382l3.207 2.714a.5.5 0 0 0 .823-.382V32.341l18.176 3.727a.485.485 0 0 0 .1.01.5.5 0 0 0 .276-.083.5.5 0 0 0 .215-.316l1.292-6.279a.5.5 0 0 0-.39-.595zM41.42 23.438c-.026-.021-2.491-2.117-1.683-6.963l14.314 2.934c-1.152 4.728-4.149 5.7-4.289 5.74l-8.334-1.708zM22.658 52.327h-2.207V26.71l2.207.453zm1-14.632V27.368L43.7 31.479V37.7zm23.253 14.934L44.7 50.762V31.684l2.207.452zM65.8 34.988L3.922 22.3 5.009 17l61.877 12.684z" fill="#36384b"/></g></svg>