<svg xmlns="http://www.w3.org/2000/svg" viewBox="0 0 72 72"><g data-name="Layer 1"><ellipse cx="42.097" cy="33.97" rx="26.195" ry="18.351" fill="#a9ffd6"/><path d="M14.093 44.4a5.288 5.288 0 0 0-1.988-.543l-.36-.027-.191-1.491-1.454.186.191 1.491-.34.116a5.36 5.36 0 0 0-1.788 1.028l-.274.235-1.189-.922-.9 1.16 1.191.921-.159.324a5.284 5.284 0 0 0-.54 1.99l-.027.36-1.493.191.188 1.454 1.492-.191.115.342a5.324 5.324 0 0 0 1.027 1.786l.237.272-.923 1.2 1.16.9.923-1.194.324.16a5.293 5.293 0 0 0 1.988.543l.36.027.191 1.492 1.454-.187-.191-1.491.34-.117a5.308 5.308 0 0 0 1.788-1.027l.272-.237.385.3-1.4-8.988-.082.107zm-.156 7.4a3.361 3.361 0 0 1-1.8.817 3.508 3.508 0 0 1-.433.027 3.375 3.375 0 1 1 1.557-6.373l.131.068.659 5.363zm47.615-3.257l.282-.227 1.784 1.477 1.7-2.052-1.785-1.478.171-.32a8.3 8.3 0 0 0 .94-3.065l.039-.362L67 42.3l-.249-2.655-2.309.217-.1-.349a8.321 8.321 0 0 0-1.5-2.836l-.228-.282 1.478-1.785-2.052-1.7-1.478 1.784-.32-.171a8.279 8.279 0 0 0-3.065-.939l-.362-.038-.218-2.316-2.655.25.218 2.315-.36.105a8.291 8.291 0 0 0-2.837 1.494l-.282.228-1.781-1.479-1.7 2.057 1.784 1.477-.171.321a8.289 8.289 0 0 0-.94 3.064l-.026.259L59.02 49.93a8.315 8.315 0 0 0 2.532-1.387zM51.4 41.5a4.885 4.885 0 1 1 6.184 5.177zM25.556 23.267l1.383 7.738 2.751 5.132-1.754 5.379a9.793 9.793 0 0 0 7.78 4.629c4.438.04 7.987-1.2 9.571-5.251l-1.2-5.569a20.942 20.942 0 0 0 2.952-6.841l.789-5.478z" fill="#fff"/><path d="M11.387 46.8a2.468 2.468 0 0 1 1.464.26l.131.068.406-.784-.131-.068a3.375 3.375 0 1 0-1.557 6.369 3.508 3.508 0 0 0 .433-.027 3.361 3.361 0 0 0 1.8-.817l.11-.1-.584-.661-.11.1a2.495 2.495 0 0 1-4.122-1.554 2.5 2.5 0 0 1 2.16-2.786z" fill="#36384b"/><path d="M17.114 51.409l-.538.7 1.032.8-.9 1.16-1.2-.923-.272.237a5.308 5.308 0 0 1-1.788 1.027l-.34.117.191 1.491-1.454.187-.191-1.492-.36-.027a5.293 5.293 0 0 1-1.988-.543l-.324-.16-.923 1.194-1.16-.9.923-1.2-.237-.272a5.324 5.324 0 0 1-1.028-1.786l-.115-.342-1.492.191-.188-1.454 1.493-.191.027-.36a5.284 5.284 0 0 1 .54-1.99l.159-.324-1.181-.916.9-1.16 1.193.921.274-.235a5.36 5.36 0 0 1 1.788-1.028l.34-.116-.195-1.491 1.454-.186.191 1.491.36.027a5.288 5.288 0 0 1 1.988.543l.324.16.922-1.194 1.161.9-.8 1.035.7.538 1.338-1.73-2.556-1.976-1.027 1.33a6.2 6.2 0 0 0-1.626-.444l-.212-1.662-3.2.41.212 1.663a6.229 6.229 0 0 0-1.46.839l-1.331-1.033-1.976 2.557 1.327 1.025a6.213 6.213 0 0 0-.442 1.627l-1.661.212.41 3.2 1.663-.213a6.229 6.229 0 0 0 .839 1.46L5.67 54.436l2.556 1.975 1.027-1.329a6.266 6.266 0 0 0 1.626.444l.212 1.661 3.2-.41-.212-1.663a6.2 6.2 0 0 0 1.46-.838l1.332 1.024 1.975-2.556z" fill="#36384b"/><path d="M18.846 50.277L13.766 38.7c-1.915.009-3.6-.99-4.676-3.437-1.593-3.631.658-5.448.658-5.448l1.552 3.53 2.048 1.165 3.529-1.547.6-2.326-1.547-3.528s2.725-.366 4.318 3.266c1.068 2.436.682 4.352-.589 5.745l4.895 11.2" fill="#fff"/><path d="M18.846 50.777a.5.5 0 0 1-.458-.3l-4.951-11.284c-1.554-.083-3.539-.838-4.8-3.728-1.727-3.937.7-5.954.8-6.038a.5.5 0 0 1 .771.189l1.482 3.377 1.685.959 3.074-1.352.494-1.923-1.477-3.371a.5.5 0 0 1 .391-.7c.128-.018 3.121-.368 4.842 3.561 1.264 2.882.5 4.842-.462 6.034l4.77 10.914a.5.5 0 1 1-.916.4l-4.9-11.2a.5.5 0 0 1 .089-.537c1.247-1.367 1.415-3.119.5-5.208a4.469 4.469 0 0 0-3.071-2.915l1.217 2.777a.5.5 0 0 1 .026.325l-.6 2.325a.5.5 0 0 1-.283.334l-3.529 1.547a.5.5 0 0 1-.448-.023l-2.043-1.16a.5.5 0 0 1-.211-.234L9.607 30.74a4.335 4.335 0 0 0-.059 4.323c.912 2.083 2.323 3.138 4.193 3.138h.026a.5.5 0 0 1 .458.3L19.3 50.076a.5.5 0 0 1-.458.7zm40.528-12.572a4.887 4.887 0 0 1-1.8 8.468l-.24-.856a4 4 0 1 0-5.06-4.236L51.4 41.5a4.886 4.886 0 0 1 7.979-3.291z" fill="#36384b"/><path d="M61.913 31.658l3.421 2.833-1.587 1.915a9.149 9.149 0 0 1 1.325 2.5l2.477-.233.415 4.423-2.481.234a9.187 9.187 0 0 1-.83 2.7l1.915 1.586-2.833 3.421-1.915-1.579a9.186 9.186 0 0 1-2.5 1.319l.233 2.482-4.424.416-.268-2.853.885-.084.185 1.969 2.655-.25-.218-2.315.349-.105a8.3 8.3 0 0 0 2.837-1.494l.282-.227 1.784 1.477 1.7-2.052-1.785-1.478.171-.32a8.3 8.3 0 0 0 .94-3.065l.039-.362L67 42.3l-.249-2.655-2.309.217-.1-.349a8.312 8.312 0 0 0-1.5-2.836l-.228-.282 1.478-1.785-2.052-1.7-1.478 1.784-.32-.171a8.279 8.279 0 0 0-3.065-.939l-.362-.038-.218-2.316-2.655.25.218 2.315-.36.105a8.291 8.291 0 0 0-2.837 1.494l-.282.228-1.781-1.479-1.7 2.057 1.785 1.478-.171.32a8.294 8.294 0 0 0-.94 3.064l-.037.363-2.316.217.25 2.656 1.968-.186.083.885-2.853.268-.416-4.424 2.482-.233a9.187 9.187 0 0 1 .83-2.7l-1.915-1.587 2.833-3.421 1.917 1.579a9.181 9.181 0 0 1 2.5-1.32l-.234-2.481 4.424-.416.233 2.482a9.163 9.163 0 0 1 2.7.83z" fill="#36384b"/><path d="M27.581 40.894C8.476 41.249 11 46.908 14.4 52.78c5.168 7 11.666 11.888 21.794 11.016 10.36-1.336 19.494-3.887 23.576-11.453C64.265 43.01 56.6 41.705 45.686 40.9c-1.986 7.3-12.022 7.431-18.105-.006zm21.367-20.421c-.04-11.882-6.435-12.882-12.271-12.882-6.324 0-12.119.982-12.216 12.692" fill="#a3acff"/><path d="M36.537 18.587c-9.58 0-11.9 1.242-12.015 1.513a2.244 2.244 0 0 0 .3 2.093c.757 1.093 2.412 1.817 4.919 2.152.616.083 3.888.163 7.227.163a68.3 68.3 0 0 0 7.306-.255c2.255-.349 3.718-1.047 4.348-2.076a2.2 2.2 0 0 0 .1-2.116c-.14-.261-2.605-1.474-12.185-1.474z" fill="#a3acff"/><path fill="none" stroke="#36384b" stroke-linecap="round" stroke-linejoin="round" stroke-width="1.179" d="M24.548 41.368l3.587 8.675h16.076l3.635-8.722"/><path d="M53.373 41.338a29.67 29.67 0 0 0-5.345-.448l-3.817 9.153H28.135l-3.587-8.675a.761.761 0 0 0-.922-.414 36.7 36.7 0 0 0-4.735.571.668.668 0 0 0-.484.813l2.964 11.641.638 5.815c.009.074.03.206.059.359a28.418 28.418 0 0 0 14.61 3.647 28.929 28.929 0 0 0 13.611-3.1c.022-.143.037-.278.047-.376l.64-6.362 2.888-11.819a.668.668 0 0 0-.491-.805z" fill="#fff"/><path d="M61.177 44.732c-.836-1.991-3.434-3.335-7.722-3.995h-.045a30.8 30.8 0 0 0-5.382-.441h-2.655a12.8 12.8 0 0 1-.7-4.773 21.683 21.683 0 0 0 3.227-8.365c.076-.469.172-1 .278-1.583a12.246 12.246 0 0 0 .119-1.261c.022-.351.048-.7.085-.993a3.427 3.427 0 0 0 .737-.835 2.717 2.717 0 0 0 .382-1.846.59.59 0 0 0 .033-.169C49.5 8.633 43.332 7 36.677 7 30.265 7 24 8.024 23.873 20.212a2.887 2.887 0 0 0 .462 2.317c.066.095.147.183.224.273a.593.593 0 0 0-.019.211 37.135 37.135 0 0 0 1 5.557 24.6 24.6 0 0 0 3.065 7 12.866 12.866 0 0 1-.732 4.724c-.277 0-.628-.006-1.027 0a52.522 52.522 0 0 0-3.275.077h-.062c-.726.041-1.492.1-2.275.191l-.342.039c-.067.008-.133.013-.2.022a18.093 18.093 0 0 0-1.852.308.4.4 0 0 0-.049 0c-3.622.711-5.844 1.99-6.6 3.8-.907 2.162-.063 5.707 2.148 9.033a22.832 22.832 0 0 0 7.443 6.9 29.13 29.13 0 0 0 14.907 3.724 29.668 29.668 0 0 0 13.884-3.159 22.989 22.989 0 0 0 8.466-7.461c2.234-3.379 3.061-6.841 2.138-9.036zm-24.5-36.551c5.656 0 11.183.881 11.647 11C46.655 18.53 42.787 18 36.537 18s-9.811.524-11.455 1.138C25.519 9.031 30.6 8.181 36.677 8.181zM25.03 20.436c.38-.212 2.711-1.259 11.507-1.259 8.968 0 11.345 1.055 11.706 1.25a1.608 1.608 0 0 1-.126 1.442c-.527.862-1.888 1.485-3.935 1.8a66.262 66.262 0 0 1-7.216.247c-3.416 0-6.592-.083-7.15-.157-2.3-.308-3.862-.967-4.512-1.9a1.7 1.7 0 0 1-.274-1.423zm1.65 7.846a35.293 35.293 0 0 1-.859-4.478 10.962 10.962 0 0 0 3.839 1.126c.683.091 4.028.168 7.306.168a72.358 72.358 0 0 0 7.395-.262 10.927 10.927 0 0 0 2.775-.766l-.012.17c-.027.422-.055.86-.1 1.125-.107.59-.2 1.13-.281 1.605A20.413 20.413 0 0 1 43.61 35a.553.553 0 0 0-.048.071 14.809 14.809 0 0 1-1.652 2.083c-.959.96-3.333 1.31-5.234 1.318h-.161c-1.9-.008-4.276-.358-5.235-1.317a21.678 21.678 0 0 1-4.6-8.873zm2.164 12.809a16.969 16.969 0 0 0 .907-3.907 10.4 10.4 0 0 0 .7.8c1.483 1.486 4.735 1.658 6.065 1.663h.169c1.33-.005 4.582-.177 6.065-1.664.1-.1.381-.393.763-.863a12.728 12.728 0 0 0 .949 4.036.576.576 0 0 0 .259.253 8.9 8.9 0 0 1-8.038 4.145 9.1 9.1 0 0 1-8.109-4.142.564.564 0 0 0 .27-.321zm-3.1.382a.58.58 0 0 0 .081.016h.017c.464-.013.877-.017 1.246-.018h.142a10.386 10.386 0 0 0 9.448 5.261 10.2 10.2 0 0 0 9.339-5.253h1.126l-3.325 7.973H28.529l-3.295-7.971zm-10.433 11.64c-1.969-2.96-2.79-6.144-2.043-7.924.51-1.218 2.072-2.185 4.543-2.827a1.04 1.04 0 0 0 .025.121l2.953 11.6.54 4.917a21.409 21.409 0 0 1-6.018-5.887zm35.079.794l-.641 6.363-.006.052a28.623 28.623 0 0 1-13.065 2.884A28.091 28.091 0 0 1 22.6 59.781c0-.017-.006-.039-.007-.052l-.639-5.814a.55.55 0 0 0-.015-.081l-2.96-11.642.056-.1a16.568 16.568 0 0 1 1.8-.3c.177-.023.353-.041.529-.06.754-.079 1.454-.13 1.877-.16.193-.014.314-.024.394-.032l.272-.012a.11.11 0 0 1 .093.062l3.586 8.675a.59.59 0 0 0 .545.364h16.08a.591.591 0 0 0 .544-.363l3.665-8.787a27.76 27.76 0 0 1 4.629.388.6.6 0 0 0 .242.136zm7.656-.794A21.6 21.6 0 0 1 51 59.637l.552-5.531 2.887-11.818a1.32 1.32 0 0 0 .03-.174c3.1.627 5.037 1.681 5.622 3.074.744 1.78-.077 4.964-2.045 7.925zM11.351 21.666h.583v1.166h-.583zm0 2.915h.583v1.166h-.583zm1.166-1.166h1.166v.583h-1.166zm-2.915 0h1.166v.583H9.602m45.97-13.87h.583v1.166h-.583zm0 2.915h.583v1.166h-.583zm1.166-1.166h1.166v.583h-1.166zm-2.915 0h1.166v.583h-1.166" fill="#36384b"/><circle cx="59.531" cy="15.581" r="1.166" fill="#a9ffd6"/><circle cx="17.772" cy="21.083" r=".583" fill="#a9ffd6"/></g></svg>