<svg xmlns="http://www.w3.org/2000/svg" viewBox="0 0 72 72"><g data-name="Layer 1"><ellipse cx="38.943" cy="49.831" rx="26.195" ry="18.351" fill="#a9ffd6"/><path d="M47.921 14.617l-4.883-3.3-13.231 2.1a3.773 3.773 0 0 0-2.67 1.3L7.383 41.75a3.9 3.9 0 0 0 .873 5.5l19.41 14.055a3.993 3.993 0 0 0 5.573-.9l19.8-27.2a4.011 4.011 0 0 0 .684-2.995l-2.1-13.23-4.123-2.633" fill="#fff"/><path d="M29.987 62.641a4.522 4.522 0 0 1-2.663-.864L7.915 47.722a4.482 4.482 0 0 1-1-6.313l19.752-27.034a4.308 4.308 0 0 1 3.05-1.531l13.457-2.137 5.055 3.417 3.921 2.5 2.143 13.489a4.563 4.563 0 0 1-.787 3.428l-19.8 27.2a4.6 4.6 0 0 1-3.719 1.9zM42.9 11.928l-13 2.066a3.231 3.231 0 0 0-2.291 1.066L7.853 42.094A3.317 3.317 0 0 0 8.6 46.78l19.407 14.055a3.417 3.417 0 0 0 4.762-.775l19.8-27.2a3.416 3.416 0 0 0 .581-2.562l-2.066-12.975-3.9-2.485.006-.011z" fill="#36384b"/><path d="M52.947 26.655l-.181-1.15a15.162 15.162 0 0 0 4.578-2.07c.239-.178.5-.361.767-.554 2.218-1.577 5.256-3.739 5.812-8.621a5.177 5.177 0 0 0-2.346-5.36 8.957 8.957 0 0 0-9.059.316 18.445 18.445 0 0 0-5.675 5.759l-.375.517c-.819 1.143-3 4.187-2.26 5.273l-.963.654c-1.1-1.621.6-4.261 2.279-6.608l.376-.511a19.627 19.627 0 0 1 6-6.064c3.15-1.966 7.48-2.097 10.3-.317a6.387 6.387 0 0 1 2.88 6.473c-.614 5.4-4.032 7.829-6.294 9.438-.264.187-.514.366-.746.539a16.246 16.246 0 0 1-5.093 2.286z" fill="#36384b"/><circle cx="32.068" cy="6.406" r="1.166" fill="#a9ffd6"/><circle cx="20.299" cy="15.779" r=".583" fill="#a9ffd6"/><path fill="#36384b" d="M60.48 32.611h.583v1.166h-.583zm0 2.915h.583v1.166h-.583zm1.166-1.166h1.166v.583h-1.166zm-2.915 0h1.166v.583h-1.166m-15.248-18.21a1.945 1.945 0 0 1 1.917 2.291 1.945 1.945 0 0 1-1.91 1.6 1.945 1.945 0 0 1-.006-3.889m0-1.164a3.108 3.108 0 1 0 2.557 1.337 3.093 3.093 0 0 0-2.557-1.337z"/><path fill="#a3acff" d="M13.681 43.416L30.88 20.648l16.231 10.711-17.293 23.52-16.137-11.463z"/><path d="M31.015 21.434l15.264 10.074-16.592 22.565-15.181-10.785 16.509-21.854m-.271-1.572l-.658.871-16.509 21.854-.722.956.977.694 15.181 10.785.934.662.678-.922L47.217 32.2l.725-.986-1.022-.675-15.264-10.076-.912-.6z" fill="#36384b"/><path fill="#a3acff" d="M43.118 56.198l-8.557 4.499 1.634-9.529-6.924-6.75 9.568-1.39 4.279-8.671 4.281 8.671 9.567 1.39-6.924 6.75 1.635 9.529-8.559-4.499z"/><path d="M43.119 35.672l3.893 7.888 8.7 1.264-6.3 6.14 1.487 8.67-7.786-4.093-7.786 4.093 1.487-8.67-6.3-6.14 8.7-1.264 3.893-7.888m0-2.63l-1.044 2.115-3.61 7.343-8.1 1.177-2.334.339 1.689 1.646 5.86 5.713-1.383 8.066-.4 2.324 2.087-1.1 7.245-3.809 7.244 3.809 2.087 1.1-.4-2.324-1.383-8.066 5.861-5.713 1.688-1.646-2.333-.339-8.1-1.177-3.622-7.339-1.043-2.115zm-28.73 29.807h.583v1.166h-.583zm0 2.915h.583v1.166h-.583zm1.166-1.166h1.166v.583h-1.166zm-2.915 0h1.166v.583h-1.166M23.333 4.237h.583v1.166h-.583zm0 2.915h.583v1.166h-.583zm1.166-1.166h1.166v.583h-1.166zm-2.915 0h1.166v.583h-1.166" fill="#36384b"/></g></svg>