<svg data-name="Layer 1" xmlns="http://www.w3.org/2000/svg" viewBox="0 0 61.6 71.9"><path d="M0 0v41.1A30.5 30.5 0 0 0 8.2 62h.1a30.8 30.8 0 0 0 53.3-20.9V0zm39.9 2.9l-9.1 9.7-9.1-9.7zM23.5 24.6l7.3-7.9 7.4 7.9zm15.8 2.8v31.8h-17V27.4zM2.8 2.9h14L2.8 16zm0 17L19.3 4.5l9.6 10.2-9.3 9.9H2.8zm0 21.2V27.4h16.7v31.8h-10a28.2 28.2 0 0 1-6.7-18.1zm28 28a28.3 28.3 0 0 1-18.5-7h37a28.1 28.1 0 0 1-18.5 7zm28-28a27.7 27.7 0 0 1-6.7 18.1h-10V27.4h16.7zm0-16.5H42.1l-9.3-9.9 9.5-10.2 16.5 15.4zm0-8.6l-14-13.1h14z" fill="#fff"/></svg>