<svg id="Layer_1" data-name="Layer 1" xmlns="http://www.w3.org/2000/svg" viewBox="0 0 91.7 32.3"><defs><style>.cls-1{opacity:.5}.cls-2{fill:#64eeb0}</style></defs><g class="cls-1"><path class="cls-2" d="M12.8 32.3L0 20.3 3.1 17l9.7 9L24 15.5l11 10.3 10.8-10.2 10.9 10.3 10.9-10.4L78.9 26l9.6-9 3.2 3.3-12.8 12-11.2-10.5-11 10.4-10.9-10.3-10.9 10.2L24 21.8 12.8 32.3z"/></g><g class="cls-1"><path class="cls-2" d="M12.8 16.8L0 4.8l3.1-3.3 9.7 9L24 0l11 10.3L45.8.1l10.9 10.3L67.6 0l11.3 10.5 9.6-9 3.2 3.3-12.8 12L67.7 6.3l-11 10.4L45.8 6.4 34.9 16.6 24 6.3 12.8 16.8z"/></g></svg>