<svg data-name="Layer 1" xmlns="http://www.w3.org/2000/svg" viewBox="0 0 124.5 69.4"><defs><linearGradient id="a" x1="0%" y1="0%" x2="0%" y2="100%"><stop offset="0%" stop-color="#64eeb0"/><stop offset="100%" stop-color="#434da0"/></linearGradient></defs><path d="M39.2.9a133 133 0 0 1 28.3 2.9l12.8 1.5c8.6 1.5 15.6-2.6 24.5-1.2 2.8.5 6.9.7 9.7 1.7 7.6 2.8 16.2 12.1 12.7 23.6-5.9 19.5-33.8 15.8-51.8 23.2-11 4.5-17.8 12.5-29.8 16.2-8.7 2.7-20.8 1.6-27.3-2.3-16.6-10-21-42.9-4.3-56.4a43.3 43.3 0 0 1 15.8-7.8z" transform="translate(-3.5 -.9)" fill="url(#a)"/></svg>